<?xml version="1.0" encoding="UTF-8"?>
<svg version="1.1" xmlns="http://www.w3.org/2000/svg" width="231" height="223">
<path d="M0 0 C0.66 0.66 1.32 1.32 2 2 C4.2101979 2.29259391 4.2101979 2.29259391 6.80239868 2.22705078 C7.8169664 2.22690979 8.83153412 2.2267688 9.87684631 2.22662354 C10.99465988 2.21629089 12.11247345 2.20595825 13.26416016 2.1953125 C14.4384407 2.19239197 15.61272125 2.18947144 16.82258606 2.1864624 C20.05285846 2.17683303 23.28295073 2.15844963 26.51316118 2.13692474 C29.90494086 2.11696025 33.29674252 2.10993001 36.68856812 2.10205078 C46.06429513 2.07794246 55.43991085 2.03413356 64.81555939 1.98959351 C73.37198501 1.94906708 81.92836913 1.9129126 90.48487127 1.89316368 C95.1517729 1.88172411 99.81843285 1.85461781 104.48526001 1.82470703 C118.61166626 1.76758005 132.13083022 2.12137469 146 5 C146 5.66 146 6.32 146 7 C148.07515238 8.71745364 148.07515238 8.71745364 150.6875 10.4375 C151.55761719 11.03433594 152.42773438 11.63117187 153.32421875 12.24609375 C155.96642208 14.03624816 155.96642208 14.03624816 158.76953125 15.47265625 C161 17 161 17 161.62890625 18.828125 C161.81259766 19.90320312 161.81259766 19.90320312 162 21 C163.44461355 23.94819091 164.98380201 26.83691582 166.52734375 29.734375 C170.27851976 38.05263269 170.28711219 45.81620335 170.25878906 54.81640625 C170.26150316 56.20360497 170.26506643 57.59080225 170.26940918 58.97799683 C170.27848572 62.7259109 170.27500858 66.47371421 170.26865101 70.2216301 C170.2635664 74.15499914 170.26828928 78.08835908 170.27142334 82.02172852 C170.27505583 88.62550549 170.27028273 95.22923765 170.26074219 101.83300781 C170.24985901 109.45383961 170.2533851 117.07456436 170.264395 124.69539356 C170.27348833 131.25359668 170.27474316 137.8117677 170.26951766 144.36997509 C170.2664092 148.28028809 170.2659576 152.19055088 170.27259064 156.1008606 C170.27839331 159.77811792 170.27431409 163.45523803 170.26280212 167.13248062 C170.25892199 169.1156521 170.26481622 171.09883527 170.27105713 173.08200073 C170.24117537 179.40972951 169.89785678 184.94955865 168 191 C168.66 191.33 169.32 191.66 170 192 C169.01 192 168.02 192 167 192 C166.74089844 192.88945312 166.48179687 193.77890625 166.21484375 194.6953125 C162.82065178 203.92838777 154.57107013 211.48268111 146 216 C137.11835833 219.38227383 129.07137265 220.5898008 119.61328125 220.56176758 C118.3447934 220.57371155 117.07630554 220.58565552 115.76937866 220.59796143 C112.33129848 220.6297538 108.89355904 220.63759237 105.45534897 220.64043641 C101.83123056 220.64736186 98.20727564 220.67596624 94.58325195 220.701828 C88.50114856 220.74220312 82.41912881 220.76813884 76.33691406 220.78393555 C68.5665031 220.80417418 60.79640243 220.84738259 53.02613831 220.89822865 C46.2983951 220.94216599 39.57060786 220.97654839 32.84280014 221.00889373 C30.70286361 221.01945542 28.5629347 221.03109111 26.42300415 221.04279518 C22.4109139 221.06390281 18.39885188 221.07513947 14.38671875 221.08520508 C13.21958344 221.09186691 12.05244812 221.09852875 10.84994507 221.10539246 C-7.88104408 221.12664 -23.20079021 219.37909207 -37.3125 206.125 C-40.85700629 202.4257732 -43.1297397 198.74568253 -45 194 C-45.50789063 192.78957031 -46.01578125 191.57914063 -46.5390625 190.33203125 C-48.21716963 185.83030152 -48.68752569 181.45164731 -49.0625 176.6875 C-49.44503437 170.53065003 -49.44503437 170.53065003 -52 165 C-52 164.34 -52 163.68 -52 163 C-51.34 163 -50.68 163 -50 163 C-50.33 162.071875 -50.66 161.14375 -51 160.1875 C-52 157 -52 157 -52 154 C-51.34 153.01 -50.68 152.02 -50 151 C-50.66 149.68 -51.32 148.36 -52 147 C-51.01 146.01 -51.01 146.01 -50 145 C-50.495 144.401875 -50.99 143.80375 -51.5 143.1875 C-53 141 -53 141 -53 138 C-51.515 137.01 -51.515 137.01 -50 136 C-51.98 133.525 -51.98 133.525 -54 131 C-51.525 129.02 -51.525 129.02 -49 127 C-49.66 127 -50.32 127 -51 127 C-51.33 125.68 -51.66 124.36 -52 123 C-51.01 122.505 -51.01 122.505 -50 122 C-51.06546953 119.86906094 -52.29159719 118.63412443 -54 117 C-53.67 116.01 -53.34 115.02 -53 114 C-52.01 114 -51.02 114 -50 114 C-51.07401108 111.08482708 -51.77810176 109.22189824 -54 107 C-52.68 106.01 -51.36 105.02 -50 104 C-50.66 103.01 -51.32 102.02 -52 101 C-51.67 100.01 -51.34 99.02 -51 98 C-51 96.21118763 -51.86983116 94.5916932 -52.5 92.9375 C-52.7784375 92.20402344 -53.056875 91.47054687 -53.34375 90.71484375 C-53.5603125 90.14894531 -53.776875 89.58304687 -54 89 C-53.01 88.505 -53.01 88.505 -52 88 C-51.34 88.99 -50.68 89.98 -50 91 C-50.33 90.01 -50.66 89.02 -51 88 C-51.5 85.5 -51.5 85.5 -52 83 C-52.33 82.01 -52.66 81.02 -53 80 C-52.0625 77.8125 -52.0625 77.8125 -51 76 C-51.66 76 -52.32 76 -53 76 C-52.835 74.906875 -52.67 73.81375 -52.5 72.6875 C-51.93281816 69.12474127 -51.93281816 69.12474127 -52 66 C-51.34 66.33 -50.68 66.66 -50 67 C-50.33 66.01 -50.66 65.02 -51 64 C-51.34820041 62.33637583 -51.68404492 60.67004829 -52 59 C-51.01 58.505 -51.01 58.505 -50 58 C-50.99 54.535 -50.99 54.535 -52 51 C-51.01 50.505 -51.01 50.505 -50 50 C-49.55951738 47.82473994 -49.20008564 45.63297275 -48.875 43.4375 C-47.00366501 32.75896791 -42.33233182 20.69495614 -33.98828125 13.38671875 C-25.17062655 7.23688099 -16.79868781 3.86935808 -6.17578125 2.7890625 C-4.44198453 2.58993337 -2.71889138 2.3018541 -1 2 C-0.67 1.34 -0.34 0.68 0 0 Z M-50 72 C-49 76 -49 76 -49 76 Z M-50 79 C-50 80.65 -50 82.3 -50 84 C-49.67 84 -49.34 84 -49 84 C-49 82.35 -49 80.7 -49 79 C-49.33 79 -49.66 79 -50 79 Z " fill="#EDEDE9" transform="translate(55,0)"/>
<path d="M0 0 C39.27 0 78.54 0 119 0 C119 32.01 119 64.02 119 97 C110.59086765 91.39391177 106.30422229 85.15942189 102 76.1875 C101.68490479 75.54127686 101.36980957 74.89505371 101.04516602 74.22924805 C99.8756283 71.67410942 98.95697043 69.62558371 99.15234375 66.78515625 C100.11438181 64.75911295 101.21652719 63.04463042 102.5625 61.25 C103.01753906 60.63640625 103.47257812 60.0228125 103.94140625 59.390625 C104.46541016 58.70226562 104.46541016 58.70226562 105 58 C102.07012142 57.75958369 102.07012142 57.75958369 100.0625 59.0625 C98 60 98 60 96.09375 59.97265625 C92.80615006 58.44539434 91.88074106 55.52305766 90.4375 52.375 C89.94237915 51.33472656 89.94237915 51.33472656 89.43725586 50.2734375 C88.6988579 48.72083071 87.96586683 47.16564492 87.23730469 45.60839844 C85.88352522 42.75445609 84.48037785 39.92809843 83.0703125 37.1015625 C82.06715134 35.067983 81.06454354 33.03413043 80.0625 31 C79.57773193 30.03368652 79.09296387 29.06737305 78.59350586 28.07177734 C75.94549925 22.62108093 74.18001335 18.0927594 74 12 C75.3125 10 75.3125 10 77 9 C77.66 9 78.32 9 79 9 C79 8.34 79 7.68 79 7 C72.73 7.33 66.46 7.66 60 8 C61.35931641 10.86558594 61.35931641 10.86558594 62.74609375 13.7890625 C69.94579294 29.02420074 76.85620993 44.30030687 83 60 C81.02 60.99 81.02 60.99 79 62 C74.47075747 55.33694466 71.55699788 48.42149602 68.625 40.9375 C65.08287035 32.03631821 61.42493826 23.29349465 57.14453125 14.72265625 C56 12 56 12 56 8 C48.08 8.495 48.08 8.495 40 9 C42.475 10.485 42.475 10.485 45 12 C44.6231679 20.6011927 41.61999977 28.02223446 38.5 35.9375 C37.9821126 37.27632163 37.46517791 38.6155122 36.94921875 39.95507812 C33.28706631 49.42586738 33.28706631 49.42586738 32 52 C28.99254929 52.35943813 26.00646697 52.4443356 22.98046875 52.55859375 C19.76738671 53.03444994 18.37322996 53.84513018 16 56 C16.77085938 55.98839844 17.54171875 55.97679687 18.3359375 55.96484375 C19.33882812 55.95582031 20.34171875 55.94679687 21.375 55.9375 C22.37273437 55.92589844 23.37046875 55.91429687 24.3984375 55.90234375 C27 56 27 56 29 57 C25.47529859 70.66241402 20.08676501 89.67356188 8 98 C7.34 98 6.68 98 6 98 C6 98.66 6 99.32 6 100 C14.58 100 23.16 100 32 100 C30.60624928 97.21249856 28.83755139 97.10733713 26 96 C23.41981234 93.41981234 23.65820099 92.29925154 23.59375 88.703125 C23.71497461 81.4599545 25.87287901 75.43219662 28.5 68.75 C28.92925781 67.61175781 29.35851562 66.47351563 29.80078125 65.30078125 C30.8498186 62.52666025 31.91622086 59.76069036 33 57 C34.72926874 57.31193464 36.45841044 57.62457362 38.1875 57.9375 C39.15042969 58.11152344 40.11335938 58.28554687 41.10546875 58.46484375 C42.95519825 58.80683153 44.80122471 59.16996125 46.64135742 59.56030273 C49.88440451 60.16487036 53.01765182 60.09329297 56.3125 60.0625 C57.56675781 60.05347656 58.82101563 60.04445312 60.11328125 60.03515625 C61.54220703 60.01775391 61.54220703 60.01775391 63 60 C63.33 59.01 63.66 58.02 64 57 C62.72125 57.0825 61.4425 57.165 60.125 57.25 C51.90910233 57.29749074 43.93128191 54.9353019 36 53 C36.70426 48.77794378 38.0193343 44.95926941 39.50390625 40.94921875 C39.7466478 40.29041214 39.98938934 39.63160553 40.23948669 38.95283508 C41.01036472 36.86309241 41.78634796 34.77528883 42.5625 32.6875 C43.08822969 31.26509923 43.61362391 29.84257443 44.13867188 28.41992188 C45.42190157 24.94517045 46.70971465 21.47213854 48 18 C51.47188329 20.75349474 52.72329631 24.62033694 54.328125 28.60546875 C54.79626617 29.74076775 54.79626617 29.74076775 55.27386475 30.89900208 C56.27299654 33.32566279 57.26189297 35.75633192 58.25 38.1875 C59.54399528 41.34884094 60.84186753 44.50858162 62.140625 47.66796875 C62.46103256 48.44840546 62.78144012 49.22884216 63.11155701 50.03292847 C67.92386004 61.71905093 72.99100125 73.22843323 78.71484375 84.5 C80.25205027 88.68643478 80.23752963 91.57904031 80 96 C78.02 96.99 78.02 96.99 76 98 C76 98.66 76 99.32 76 100 C90.19 100 104.38 100 119 100 C119 103.63 119 107.26 119 111 C79.73 111 40.46 111 0 111 C0 74.37 0 37.74 0 0 Z " fill="#EEEDE9" transform="translate(56,57)"/>
<path d="M0 0 C41.91 0 83.82 0 127 0 C127 39.27 127 78.54 127 119 C85.09 119 43.18 119 0 119 C0 79.73 0 40.46 0 0 Z M4 4 C4 40.63 4 77.26 4 115 C43.27 115 82.54 115 123 115 C123 111.37 123 107.74 123 104 C108.81 104 94.62 104 80 104 C80 103.34 80 102.68 80 102 C81.32 101.34 82.64 100.68 84 100 C84.95015045 91.85871086 81.61194324 86.05261087 78.0625 78.875 C76.85344908 76.36733121 75.65680457 73.85382153 74.4609375 71.33984375 C74.16211166 70.7147139 73.86328583 70.08958405 73.55540466 69.44551086 C70.89615191 63.85447111 68.4918434 58.18226962 66.1875 52.4375 C65.83494141 51.56182373 65.48238281 50.68614746 65.11914062 49.78393555 C64.4259982 48.05769466 63.734241 46.33089684 63.04394531 44.60351562 C61.24590725 40.11935334 59.41245878 35.65045694 57.5625 31.1875 C57.23209717 30.374021 56.90169434 29.56054199 56.5612793 28.72241211 C55.13999704 24.64344031 55.13999704 24.64344031 52 22 C50.44697795 26.17915906 48.89887598 30.36009803 47.35522461 34.54272461 C46.82986748 35.9641174 46.30319028 37.38502303 45.77514648 38.80541992 C45.01455177 40.85207206 44.25878709 42.90045333 43.50390625 44.94921875 C43.04830322 46.17987061 42.5927002 47.41052246 42.12329102 48.6784668 C41.18024452 51.4670231 40.48325147 54.10289542 40 57 C53.82644065 60.46015261 53.82644065 60.46015261 68 61 C67.67 61.99 67.34 62.98 67 64 C58.47740351 64.34499266 50.9031435 63.85583107 42.64453125 61.65625 C39.96884204 60.87957568 39.96884204 60.87957568 37 61 C35.46715895 64.90457737 33.98014345 68.82517519 32.5 72.75 C32.07074219 73.84183594 31.64148438 74.93367188 31.19921875 76.05859375 C28.51362519 83.26280506 26.57905301 90.27706083 28 98 C30.11207014 100.72205963 31.71953569 101.23455833 35 102 C35.495 102.99 35.495 102.99 36 104 C27.42 104 18.84 104 10 104 C10 103.34 10 102.68 10 102 C11.0828125 101.690625 11.0828125 101.690625 12.1875 101.375 C18.43057653 98.32282925 21.25180689 92.06223143 24 86 C24.3403125 85.26322021 24.680625 84.52644043 25.03125 83.76733398 C30.51698494 72.73965623 30.51698494 72.73965623 33 61 C30.35541621 59.67770811 28.32238699 59.90322806 25.375 59.9375 C23.87066406 59.95103516 23.87066406 59.95103516 22.3359375 59.96484375 C21.56507812 59.97644531 20.79421875 59.98804688 20 60 C23.32851768 56.98656045 25.81882813 56.55332456 30.25 56.3125 C31.32765625 56.24675781 32.4053125 56.18101563 33.515625 56.11328125 C34.74539062 56.05720703 34.74539062 56.05720703 36 56 C39.75665881 46.74486966 43.51461229 37.48632953 47 28.125 C47.391875 27.07570313 47.78375 26.02640625 48.1875 24.9453125 C49.0824477 21.70112708 49.52069048 19.3379979 49 16 C47.35 15.01 45.7 14.02 44 13 C51.92 12.505 51.92 12.505 60 12 C60.495 14.97 60.495 14.97 61 18 C61.85717279 20.36552767 61.85717279 20.36552767 62.96875 22.625 C63.37077637 23.48625488 63.77280273 24.34750977 64.18701172 25.23486328 C64.62029785 26.1473584 65.05358398 27.05985352 65.5 28 C69.64026221 36.86385004 73.45177333 45.80620642 76.95507812 54.94140625 C78.72085195 59.41736024 80.11875654 62.91937178 84 66 C84.99 65.34 85.98 64.68 87 64 C79.72300958 46.46670305 72.05930939 29.18756732 64 12 C70.27 11.67 76.54 11.34 83 11 C83 11.66 83 12.32 83 13 C82.360625 13.309375 81.72125 13.61875 81.0625 13.9375 C79.06389179 14.8345163 79.06389179 14.8345163 78 16 C78.39137168 21.6501431 79.53322557 25.86303786 81.984375 31.02734375 C82.28184631 31.66056046 82.57931763 32.29377716 82.88580322 32.94618225 C83.51269177 34.27544924 84.14490733 35.60221606 84.78222656 36.92651367 C85.74368752 38.92438296 86.68964741 40.92898528 87.6328125 42.93554688 C89.38371956 46.64320466 91.18160768 50.32493893 93 54 C93.47115234 54.9605127 93.94230469 55.92102539 94.42773438 56.91064453 C94.84861328 57.7251709 95.26949219 58.53969727 95.703125 59.37890625 C96.05536133 60.06670166 96.40759766 60.75449707 96.77050781 61.46313477 C98.36178908 63.45223634 99.50756513 63.69891288 102 64 C103.94588307 63.4915835 103.94588307 63.4915835 105.75 62.5625 C106.8225 62.046875 107.895 61.53125 109 61 C105.25 67.75 105.25 67.75 103 70 C104.58866746 80.38969845 111.04476556 92.27495645 119 99 C120.98 99.99 120.98 99.99 123 101 C123 68.99 123 36.98 123 4 C83.73 4 44.46 4 4 4 Z " fill="#92825E" transform="translate(52,53)"/>
<path d="M0 0 C39.27 0 78.54 0 119 0 C119 32.01 119 64.02 119 97 C110.59086765 91.39391177 106.30422229 85.15942189 102 76.1875 C101.68490479 75.54127686 101.36980957 74.89505371 101.04516602 74.22924805 C99.8756283 71.67410942 98.95697043 69.62558371 99.15234375 66.78515625 C100.11438181 64.75911295 101.21652719 63.04463042 102.5625 61.25 C103.01753906 60.63640625 103.47257812 60.0228125 103.94140625 59.390625 C104.46541016 58.70226562 104.46541016 58.70226562 105 58 C102.07012142 57.75958369 102.07012142 57.75958369 100.0625 59.0625 C98 60 98 60 96.09375 59.97265625 C92.80615006 58.44539434 91.88074106 55.52305766 90.4375 52.375 C89.94237915 51.33472656 89.94237915 51.33472656 89.43725586 50.2734375 C88.6988579 48.72083071 87.96586683 47.16564492 87.23730469 45.60839844 C85.88352522 42.75445609 84.48037785 39.92809843 83.0703125 37.1015625 C82.06715134 35.067983 81.06454354 33.03413043 80.0625 31 C79.57773193 30.03368652 79.09296387 29.06737305 78.59350586 28.07177734 C75.94549925 22.62108093 74.18001335 18.0927594 74 12 C75.3125 10 75.3125 10 77 9 C77.66 9 78.32 9 79 9 C79 8.34 79 7.68 79 7 C72.73 7.33 66.46 7.66 60 8 C61.35931641 10.86558594 61.35931641 10.86558594 62.74609375 13.7890625 C69.94579294 29.02420074 76.85620993 44.30030687 83 60 C81.02 60.99 81.02 60.99 79 62 C74.47069031 55.33684585 71.5574737 48.42138479 68.625 40.9375 C65.08579641 32.05719684 61.44081907 23.31076628 57.2421875 14.72265625 C56 12 56 12 55 8 C49.06 7.67 43.12 7.34 37 7 C36.67 7.66 36.34 8.32 36 9 C35.505 7.515 35.505 7.515 35 6 C35.75925781 5.95101562 36.51851562 5.90203125 37.30078125 5.8515625 C38.29464844 5.77679688 39.28851563 5.70203125 40.3125 5.625 C41.29863281 5.55539063 42.28476563 5.48578125 43.30078125 5.4140625 C46.21528433 5.16134528 46.21528433 5.16134528 49 3 C33.16 2.67 17.32 2.34 1 2 C1 37.31 1 72.62 1 109 C39.61 109 78.22 109 118 109 C118 106.36 118 103.72 118 101 C103.48 101 88.96 101 74 101 C74.495 99.02 74.495 99.02 75 97 C75 97.99 75 98.98 75 100 C89.52 100 104.04 100 119 100 C119 103.63 119 107.26 119 111 C79.73 111 40.46 111 0 111 C0 74.37 0 37.74 0 0 Z " fill="#F0EFEC" transform="translate(56,57)"/>
<path d="M0 0 C46.53 0 93.06 0 141 0 C141 43.23 141 86.46 141 131 C94.47 131 47.94 131 0 131 C0 87.77 0 44.54 0 0 Z M7 6 C7 45.27 7 84.54 7 125 C48.91 125 90.82 125 134 125 C134 85.73 134 46.46 134 6 C92.09 6 50.18 6 7 6 Z " fill="#F4F3F1" transform="translate(45,47)"/>
<path d="M0 0 C49.17 0 98.34 0 149 0 C149 45.87 149 91.74 149 139 C99.83 139 50.66 139 0 139 C0 93.13 0 47.26 0 0 Z M4 4 C4 47.23 4 90.46 4 135 C50.53 135 97.06 135 145 135 C145 91.77 145 48.54 145 4 C98.47 4 51.94 4 4 4 Z " fill="#7F6E47" transform="translate(41,43)"/>
<path d="M0 0 C0.66 0.66 1.32 1.32 2 2 C4.2101979 2.29259391 4.2101979 2.29259391 6.80239868 2.22705078 C7.8169664 2.22690979 8.83153412 2.2267688 9.87684631 2.22662354 C10.99465988 2.21629089 12.11247345 2.20595825 13.26416016 2.1953125 C14.4384407 2.19239197 15.61272125 2.18947144 16.82258606 2.1864624 C20.05285846 2.17683303 23.28295073 2.15844963 26.51316118 2.13692474 C29.90494086 2.11696025 33.29674252 2.10993001 36.68856812 2.10205078 C46.06429513 2.07794246 55.43991085 2.03413356 64.81555939 1.98959351 C73.37198501 1.94906708 81.92836913 1.9129126 90.48487127 1.89316368 C95.1517729 1.88172411 99.81843285 1.85461781 104.48526001 1.82470703 C118.61166626 1.76758005 132.13083022 2.12137469 146 5 C146 5.66 146 6.32 146 7 C148.07515238 8.71745364 148.07515238 8.71745364 150.6875 10.4375 C151.55761719 11.03433594 152.42773438 11.63117187 153.32421875 12.24609375 C155.96642208 14.03624816 155.96642208 14.03624816 158.76953125 15.47265625 C161 17 161 17 161.62890625 18.828125 C161.81259766 19.90320312 161.81259766 19.90320312 162 21 C163.44461355 23.94819091 164.98380201 26.83691582 166.52734375 29.734375 C170.27851976 38.05263269 170.28711219 45.81620335 170.25878906 54.81640625 C170.26150316 56.20360497 170.26506643 57.59080225 170.26940918 58.97799683 C170.27848572 62.7259109 170.27500858 66.47371421 170.26865101 70.2216301 C170.2635664 74.15499914 170.26828928 78.08835908 170.27142334 82.02172852 C170.27505583 88.62550549 170.27028273 95.22923765 170.26074219 101.83300781 C170.24985901 109.45383961 170.2533851 117.07456436 170.264395 124.69539356 C170.27348833 131.25359668 170.27474316 137.8117677 170.26951766 144.36997509 C170.2664092 148.28028809 170.2659576 152.19055088 170.27259064 156.1008606 C170.27839331 159.77811792 170.27431409 163.45523803 170.26280212 167.13248062 C170.25892199 169.1156521 170.26481622 171.09883527 170.27105713 173.08200073 C170.24117537 179.40972951 169.89785678 184.94955865 168 191 C168.66 191.33 169.32 191.66 170 192 C169.01 192 168.02 192 167 192 C166.74089844 192.88945312 166.48179687 193.77890625 166.21484375 194.6953125 C162.82065178 203.92838777 154.57107013 211.48268111 146 216 C137.11835833 219.38227383 129.07137265 220.5898008 119.61328125 220.56176758 C118.3447934 220.57371155 117.07630554 220.58565552 115.76937866 220.59796143 C112.33129848 220.6297538 108.89355904 220.63759237 105.45534897 220.64043641 C101.83123056 220.64736186 98.20727564 220.67596624 94.58325195 220.701828 C88.50114856 220.74220312 82.41912881 220.76813884 76.33691406 220.78393555 C68.5665031 220.80417418 60.79640243 220.84738259 53.02613831 220.89822865 C46.2983951 220.94216599 39.57060786 220.97654839 32.84280014 221.00889373 C30.70286361 221.01945542 28.5629347 221.03109111 26.42300415 221.04279518 C22.4109139 221.06390281 18.39885188 221.07513947 14.38671875 221.08520508 C13.21958344 221.09186691 12.05244812 221.09852875 10.84994507 221.10539246 C-7.88104408 221.12664 -23.20079021 219.37909207 -37.3125 206.125 C-40.85700629 202.4257732 -43.1297397 198.74568253 -45 194 C-45.50789063 192.78957031 -46.01578125 191.57914063 -46.5390625 190.33203125 C-48.21716963 185.83030152 -48.68752569 181.45164731 -49.0625 176.6875 C-49.44503437 170.53065003 -49.44503437 170.53065003 -52 165 C-52 164.34 -52 163.68 -52 163 C-51.34 163 -50.68 163 -50 163 C-50.33 162.071875 -50.66 161.14375 -51 160.1875 C-52 157 -52 157 -52 154 C-51.34 153.01 -50.68 152.02 -50 151 C-50.66 149.68 -51.32 148.36 -52 147 C-51.01 146.01 -51.01 146.01 -50 145 C-50.495 144.401875 -50.99 143.80375 -51.5 143.1875 C-53 141 -53 141 -53 138 C-51.515 137.01 -51.515 137.01 -50 136 C-51.98 133.525 -51.98 133.525 -54 131 C-51.525 129.02 -51.525 129.02 -49 127 C-49.66 127 -50.32 127 -51 127 C-51.33 125.68 -51.66 124.36 -52 123 C-51.01 122.505 -51.01 122.505 -50 122 C-51.06546953 119.86906094 -52.29159719 118.63412443 -54 117 C-53.67 116.01 -53.34 115.02 -53 114 C-52.01 114 -51.02 114 -50 114 C-51.07401108 111.08482708 -51.77810176 109.22189824 -54 107 C-52.68 106.01 -51.36 105.02 -50 104 C-50.66 103.01 -51.32 102.02 -52 101 C-51.67 100.01 -51.34 99.02 -51 98 C-51 96.21118763 -51.86983116 94.5916932 -52.5 92.9375 C-52.7784375 92.20402344 -53.056875 91.47054687 -53.34375 90.71484375 C-53.5603125 90.14894531 -53.776875 89.58304687 -54 89 C-53.01 88.505 -53.01 88.505 -52 88 C-51.34 88.99 -50.68 89.98 -50 91 C-50.33 90.01 -50.66 89.02 -51 88 C-51.5 85.5 -51.5 85.5 -52 83 C-52.33 82.01 -52.66 81.02 -53 80 C-52.0625 77.8125 -52.0625 77.8125 -51 76 C-51.66 76 -52.32 76 -53 76 C-52.835 74.906875 -52.67 73.81375 -52.5 72.6875 C-51.93281816 69.12474127 -51.93281816 69.12474127 -52 66 C-51.34 66.33 -50.68 66.66 -50 67 C-50.33 66.01 -50.66 65.02 -51 64 C-51.34820041 62.33637583 -51.68404492 60.67004829 -52 59 C-51.01 58.505 -51.01 58.505 -50 58 C-50.99 54.535 -50.99 54.535 -52 51 C-51.01 50.505 -51.01 50.505 -50 50 C-49.55951738 47.82473994 -49.20008564 45.63297275 -48.875 43.4375 C-47.00366501 32.75896791 -42.33233182 20.69495614 -33.98828125 13.38671875 C-25.17062655 7.23688099 -16.79868781 3.86935808 -6.17578125 2.7890625 C-4.44198453 2.58993337 -2.71889138 2.3018541 -1 2 C-0.67 1.34 -0.34 0.68 0 0 Z M-36 19 C-44.41566948 30.15990953 -46.60700942 42.58049094 -46.50170898 56.26049805 C-46.50550373 57.63534088 -46.5110132 59.01017986 -46.51808167 60.38500977 C-46.53189942 64.07710903 -46.52096617 67.76873517 -46.50437045 71.46080756 C-46.49039307 75.34649903 -46.49699401 79.23216653 -46.50050354 83.11787415 C-46.50319477 89.6363578 -46.48982095 96.15465616 -46.46655273 102.6730957 C-46.43991625 110.18668904 -46.4382106 117.69997353 -46.4499411 125.21359795 C-46.46075335 132.47569357 -46.45450701 139.73767853 -46.44038582 146.9997654 C-46.43465919 150.07567809 -46.43468221 153.15150893 -46.43945122 156.22742271 C-46.4442554 159.85312567 -46.43397865 163.47849415 -46.41249657 167.10413361 C-46.40436246 169.05346077 -46.41074111 171.00283196 -46.41769409 172.9521637 C-46.31411519 185.30633064 -43.45643882 195.937497 -34.9609375 205.23046875 C-23.40076815 216.11663529 -11.019101 218.3057493 4.37573242 218.2746582 C5.69079773 218.27976913 7.00586304 218.28488007 8.36077881 218.29014587 C11.94581095 218.30345799 15.53073716 218.30412298 19.11578918 218.30158257 C22.1221768 218.30050693 25.12854351 218.30541163 28.13492662 218.310188 C35.23750955 218.32125761 42.34003959 218.32173584 49.44262695 218.31567383 C56.73564167 218.30964424 64.02846296 218.321925 71.32144469 218.3432439 C77.61140191 218.36094519 83.90129806 218.36684766 90.19127923 218.36360615 C93.93524809 218.3618057 97.67907915 218.36430361 101.42302513 218.37832069 C104.95016229 218.39103319 108.47700176 218.38883052 112.00413513 218.37590981 C113.89072978 218.37247219 115.77733411 218.38362407 117.66389465 218.39547729 C131.5373613 218.31151294 144.86935366 216.03687655 155.52734375 206.56640625 C163.89572637 197.6652884 168.09532141 187.3850557 168.14717102 175.20922852 C168.15432632 174.05157486 168.16148163 172.8939212 168.16885376 171.70118713 C168.17154266 170.43983444 168.17423157 169.17848175 168.17700195 167.87890625 C168.1832724 166.529819 168.18991971 165.18073346 168.19691467 163.83164978 C168.21789699 159.40861195 168.22831499 154.98557402 168.23828125 150.5625 C168.24233167 149.03450503 168.24644868 147.50651024 168.25063133 145.97851562 C168.2696741 138.79440075 168.28390427 131.61029606 168.2922433 124.42616081 C168.30199771 116.16112567 168.32827381 107.89635962 168.36874419 99.63141918 C168.39902096 93.22607046 168.41372326 86.82079835 168.41702431 80.41537952 C168.41936259 76.5980972 168.42816126 72.7811026 168.45348549 68.96389771 C168.47697335 65.36537107 168.4809177 61.76731737 168.47072411 58.1687336 C168.4700021 56.24012792 168.48894883 54.31154514 168.50878906 52.38304138 C168.42299422 37.80084206 164.09870027 26.41280655 154.25 15.75 C143.52139456 5.51091268 130.5054706 4.69496572 116.35546875 4.74121094 C115.01062837 4.73849483 113.66578949 4.73493045 112.32095337 4.73059082 C108.69698504 4.72153812 105.07313165 4.72498141 101.44916153 4.73134899 C97.63952598 4.73644612 93.82989965 4.73170729 90.02026367 4.72857666 C83.62514496 4.72494777 77.23007259 4.72970774 70.83496094 4.73925781 C63.46292628 4.75014029 56.09100228 4.74661395 48.7189703 4.735605 C42.36621377 4.72650133 36.01349036 4.72526186 29.66072941 4.73048234 C25.87669628 4.73358516 22.09271501 4.73405818 18.3086853 4.72740936 C14.74958544 4.72159151 11.19062695 4.72571313 7.63154221 4.73719788 C5.71795592 4.74106265 3.80435755 4.73519686 1.89077759 4.72894287 C-12.49034697 4.79883352 -25.99197695 7.81012498 -36 19 Z M-50 72 C-49 76 -49 76 -49 76 Z M-50 79 C-50 80.65 -50 82.3 -50 84 C-49.67 84 -49.34 84 -49 84 C-49 82.35 -49 80.7 -49 79 C-49.33 79 -49.66 79 -50 79 Z " fill="#32312E" transform="translate(55,0)"/>
<path d="M0 0 C3 1 3 1 4.17009544 2.75008011 C5.1139139 5.30882725 5.26122317 7.27326022 5.2784729 9.99871826 C5.28962442 11.00341534 5.30077595 12.00811241 5.3122654 13.04325485 C5.31443754 14.14369755 5.31660969 15.24414024 5.31884766 16.37792969 C5.32900091 17.55796192 5.33915417 18.73799416 5.3496151 19.95378494 C5.38026998 23.77647848 5.39741325 27.59909745 5.4140625 31.421875 C5.4309943 33.78076828 5.44881062 36.13965538 5.4675293 38.49853516 C5.53074912 47.2489525 5.57682994 55.99948687 5.625 64.75 C5.74875 84.3025 5.8725 103.855 6 124 C48.57 124 91.14 124 135 124 C135.495 65.095 135.495 65.095 136 5 C136.33 5 136.66 5 137 5 C137.33 11.6 137.66 18.2 138 25 C138.33 25 138.66 25 139 25 C138.99555878 26.28595062 138.99111755 27.57190125 138.98654175 28.89682007 C138.94606625 40.9928581 138.91604962 53.08888247 138.89637566 65.18497276 C138.88592121 71.40426828 138.87173179 77.62350929 138.84912109 83.84277344 C138.82745185 89.84035404 138.8154439 95.8378821 138.81024551 101.83549881 C138.80653909 104.12812757 138.79930179 106.42075333 138.78853989 108.71335983 C138.77410364 111.91492771 138.77201875 115.11627612 138.77294922 118.31787109 C138.76216339 119.75177437 138.76216339 119.75177437 138.75115967 121.21464539 C138.75528366 122.51875618 138.75528366 122.51875618 138.75949097 123.84921265 C138.75764738 124.60692648 138.75580379 125.36464031 138.75390434 126.14531517 C138.8415141 128.24681622 138.8415141 128.24681622 141 130 C94.47 130 47.94 130 0 130 C0 87.1 0 44.2 0 0 Z " fill="#EAE9E4" transform="translate(45,48)"/>
<path d="M0 0 C3.38097503 3.1009133 4.79732563 6.74376934 6.50390625 10.921875 C6.82785873 11.70008606 7.15181122 12.47829712 7.48558044 13.28009033 C8.16897877 14.92614582 8.84875088 16.57371085 9.52514648 18.22265625 C10.5543815 20.7302206 11.59551575 23.23257462 12.63867188 25.734375 C13.30279707 27.33824631 13.96623089 28.94240411 14.62890625 30.546875 C14.93727921 31.28879089 15.24565216 32.03070679 15.56336975 32.79510498 C18.27166339 39.41985404 20.12684452 45.86923027 21 53 C20.01 53.495 20.01 53.495 19 54 C18.690625 54.825 18.38125 55.65 18.0625 56.5 C17.711875 57.325 17.36125 58.15 17 59 C15.515 59.495 15.515 59.495 14 60 C14 60.66 14 61.32 14 62 C13.34 61.67 12.68 61.34 12 61 C12.33 59.02 12.66 57.04 13 55 C9.59679066 54.32326553 9.59679066 54.32326553 6 54 C3.71271266 55.83883881 3.71271266 55.83883881 3.875 58.625 C3.91625 59.40875 3.9575 60.1925 4 61 C10.61809577 63.46254726 17.00439516 63.18935472 24 63 C23 66 23 66 20 68 C19.60516609 70.03426205 19.60516609 70.03426205 19.625 72.3125 C19.33472319 76.06795625 19.09271246 76.88288953 16.625 80 C12.04259037 83.49135972 7.56052788 83.55703003 2 83 C-1.63467079 81.37599816 -2.77408696 80.33886956 -5 77 C-5.43919042 72.97408782 -5.64309139 70.86484704 -3.1875 67.5625 C-1 66 -1 66 2 66 C2 65.34 2 64.68 2 64 C1.360625 63.690625 0.72125 63.38125 0.0625 63.0625 C-2 62 -2 62 -3 61 C-3.4375 58.25 -3.4375 58.25 -3 55 C0.25848714 51.33420196 2.50895405 49.81090802 7.375 49.1875 C8.57125 49.125625 9.7675 49.06375 11 49 C9.02 48.67 7.04 48.34 5 48 C5.9590625 47.566875 5.9590625 47.566875 6.9375 47.125 C9.15206079 46.17176549 9.15206079 46.17176549 10 44 C8.68 43.67 7.36 43.34 6 43 C10.455 42.505 10.455 42.505 15 42 C15.33 41.01 15.66 40.02 16 39 C14.72125 39.0825 13.4425 39.165 12.125 39.25 C3.90910233 39.29749074 -4.06871809 36.9353019 -12 35 C-11.29574 30.77794378 -9.9806657 26.95926941 -8.49609375 22.94921875 C-8.2533522 22.29041214 -8.01061066 21.63160553 -7.76051331 20.95283508 C-6.98963528 18.86309241 -6.21365204 16.77528883 -5.4375 14.6875 C-4.91177031 13.26509923 -4.38637609 11.84257443 -3.86132812 10.41992188 C-2.57809843 6.94517045 -1.29028535 3.47213854 0 0 Z " fill="#EDECE7" transform="translate(104,75)"/>
<path d="M0 0 C0.33 0 0.66 0 1 0 C1 39.27 1 78.54 1 119 C-40.91 119 -82.82 119 -126 119 C-126 80.06 -126 41.12 -126 1 C-84.75 1 -43.5 1 -1 1 C-1.66 1.99 -2.32 2.98 -3 4 C-5.10456276 4.36914349 -5.10456276 4.36914349 -7.75820923 4.36076355 C-8.76224289 4.36488754 -9.76627655 4.36901154 -10.80073547 4.3732605 C-11.90628281 4.36247467 -13.01183014 4.35168884 -14.15087891 4.34057617 C-15.31184586 4.34101425 -16.47281281 4.34145233 -17.66896057 4.34190369 C-21.52166328 4.339807 -25.37393544 4.31643395 -29.2265625 4.29296875 C-31.89172097 4.28737592 -34.55685531 4.28295685 -37.22201538 4.28010559 C-43.52960725 4.27077226 -49.83704359 4.24614121 -56.14456689 4.21605712 C-64.02863976 4.17926792 -71.91273776 4.16282106 -79.796875 4.14648438 C-93.86470457 4.11724436 -107.93219463 4.05715178 -122 4 C-122 40.63 -122 77.26 -122 115 C-113.44449219 114.97679687 -104.88898438 114.95359375 -96.07421875 114.9296875 C-89.97711901 114.91817397 -83.8800274 114.9079206 -77.7829237 114.89949226 C-69.87812596 114.88839663 -61.9733703 114.87429594 -54.06860352 114.84912109 C-47.81146443 114.82920304 -41.55435705 114.81628733 -35.29718715 114.81182301 C-31.98324784 114.80921293 -28.66942052 114.8020233 -25.35550499 114.78853989 C-21.65841597 114.77409127 -17.96151686 114.77201929 -14.2644043 114.77294922 C-13.16245224 114.76575867 -12.06050018 114.75856812 -10.92515564 114.75115967 C-9.91974731 114.753909 -8.91433899 114.75665833 -7.87846375 114.75949097 C-7.0036822 114.75764738 -6.12890066 114.75580379 -5.22761059 114.75390434 C-3 115 -3 115 0 117 C0 78.39 0 39.78 0 0 Z " fill="#735F34" transform="translate(178,53)"/>
<path d="M0 0 C-0.66 0 -1.32 0 -2 0 C-2 0.66 -2 1.32 -2 2 C-2.94101562 2.44730469 -3.88203125 2.89460937 -4.8515625 3.35546875 C-6.10958875 3.96570537 -7.36738929 4.57640747 -8.625 5.1875 C-9.24246094 5.47947266 -9.85992187 5.77144531 -10.49609375 6.07226562 C-19.88889108 10.66979274 -25.28835946 17.13940348 -29.13812351 26.87951374 C-31.85894814 35.15600612 -32.56850219 42.58312128 -32.50170898 51.26049805 C-32.50550373 52.63534088 -32.5110132 54.01017986 -32.51808167 55.38500977 C-32.53189942 59.07710903 -32.52096617 62.76873517 -32.50437045 66.46080756 C-32.49039307 70.34649903 -32.49699401 74.23216653 -32.50050354 78.11787415 C-32.50319477 84.6363578 -32.48982095 91.15465616 -32.46655273 97.6730957 C-32.43991625 105.18668904 -32.4382106 112.69997353 -32.4499411 120.21359795 C-32.46075335 127.47569357 -32.45450701 134.73767853 -32.44038582 141.9997654 C-32.43465919 145.07567809 -32.43468221 148.15150893 -32.43945122 151.22742271 C-32.4442554 154.85312567 -32.43397865 158.47849415 -32.41249657 162.10413361 C-32.40436246 164.05346077 -32.41074111 166.00283196 -32.41769409 167.9521637 C-32.31542396 180.15022917 -29.53474525 190.77664719 -21.18359375 200.0078125 C-9.82664669 210.60762976 3.01118728 212.2937304 17.96508789 212.31884766 C19.35556613 212.3281621 20.74603885 212.338333 22.13650513 212.34928894 C25.88584097 212.37643228 29.63513958 212.39169148 33.38454747 212.40471697 C37.3123519 212.42041659 41.24008104 212.44718479 45.16783142 212.4727478 C52.59423156 212.51941522 60.02064605 212.55621733 67.44711727 212.58942068 C75.90670386 212.62772744 84.3662146 212.67711502 92.82573712 212.72740483 C110.21710311 212.83054552 127.6085131 212.91986364 145 213 C145 213.33 145 213.66 145 214 C125.91051547 214.11704647 106.82110424 214.20509223 87.73133469 214.25906086 C78.86666585 214.28479079 70.0022206 214.31984099 61.13769531 214.37719727 C53.40710837 214.42719256 45.67668343 214.45932886 37.9459393 214.47044247 C33.85634114 214.47693411 29.76720625 214.49208086 25.67775726 214.52865028 C21.81990281 214.56286562 17.9626976 214.57300228 14.10470581 214.56553841 C12.69711007 214.56690167 11.28949013 214.57668159 9.88202667 214.59602737 C-1.5979464 214.74593513 -11.99082021 212.77605157 -20.5 204.5 C-21.2734375 203.7678125 -22.046875 203.035625 -22.84375 202.28125 C-26.3084573 198.6156901 -29.16705788 195.17273582 -31.125 190.5 C-31.43695313 189.7678125 -31.74890625 189.035625 -32.0703125 188.28125 C-32.53050781 187.15203125 -32.53050781 187.15203125 -33 186 C-33.52207031 184.90558594 -33.52207031 184.90558594 -34.0546875 183.7890625 C-35.63320174 179.13179322 -35.79221212 174.29534401 -36.2109375 169.41796875 C-36.32308594 168.24814453 -36.32308594 168.24814453 -36.4375 167.0546875 C-36.49808594 166.34812012 -36.55867188 165.64155273 -36.62109375 164.91357422 C-36.93637801 162.68103698 -36.93637801 162.68103698 -39 160 C-39 159.34 -39 158.68 -39 158 C-38.34 158 -37.68 158 -37 158 C-37.33 157.071875 -37.66 156.14375 -38 155.1875 C-39 152 -39 152 -39 149 C-38.34 148.01 -37.68 147.02 -37 146 C-37.66 144.68 -38.32 143.36 -39 142 C-38.01 141.01 -38.01 141.01 -37 140 C-37.495 139.401875 -37.99 138.80375 -38.5 138.1875 C-40 136 -40 136 -40 133 C-38.515 132.01 -38.515 132.01 -37 131 C-38.98 128.525 -38.98 128.525 -41 126 C-39.35 124.68 -37.7 123.36 -36 122 C-36.66 122 -37.32 122 -38 122 C-38.33 120.68 -38.66 119.36 -39 118 C-38.01 117.505 -38.01 117.505 -37 117 C-38.06546953 114.86906094 -39.29159719 113.63412443 -41 112 C-40.67 111.01 -40.34 110.02 -40 109 C-39.01 109 -38.02 109 -37 109 C-38.07401108 106.08482708 -38.77810176 104.22189824 -41 102 C-39.68 101.01 -38.36 100.02 -37 99 C-37.66 98.01 -38.32 97.02 -39 96 C-38.67 95.01 -38.34 94.02 -38 93 C-38 91.21118763 -38.86983116 89.5916932 -39.5 87.9375 C-39.7784375 87.20402344 -40.056875 86.47054687 -40.34375 85.71484375 C-40.5603125 85.14894531 -40.776875 84.58304687 -41 84 C-40.01 83.505 -40.01 83.505 -39 83 C-38.34 83.99 -37.68 84.98 -37 86 C-37.33 85.01 -37.66 84.02 -38 83 C-38.5 80.5 -38.5 80.5 -39 78 C-39.33 77.01 -39.66 76.02 -40 75 C-39.0625 72.8125 -39.0625 72.8125 -38 71 C-38.66 71 -39.32 71 -40 71 C-39.835 69.906875 -39.67 68.81375 -39.5 67.6875 C-38.93281816 64.12474127 -38.93281816 64.12474127 -39 61 C-38.34 61.33 -37.68 61.66 -37 62 C-37.495 60.515 -37.495 60.515 -38 59 C-38.34820041 57.33637583 -38.68404492 55.67004829 -39 54 C-38.01 53.505 -38.01 53.505 -37 53 C-37.99 49.535 -37.99 49.535 -39 46 C-38.01 45.505 -38.01 45.505 -37 45 C-36.55951738 42.82473994 -36.20008564 40.63297275 -35.875 38.4375 C-34.00366501 27.75896791 -29.33233182 15.69495614 -20.98828125 8.38671875 C-6.06480305 -2.02160102 -6.06480305 -2.02160102 0 0 Z M-37 67 C-36 71 -36 71 -36 71 Z M-37 74 C-37 75.65 -37 77.3 -37 79 C-36.67 79 -36.34 79 -36 79 C-36 77.35 -36 75.7 -36 74 C-36.33 74 -36.66 74 -37 74 Z " fill="#242421" transform="translate(42,5)"/>
<path d="M0 0 C5.50601007 1.83533669 7.75545875 8.25285347 10.36328125 13.16796875 C11 15 11 15 10 18 C8.68 15.03 7.36 12.06 6 9 C1.71 20.22 -2.58 31.44 -7 43 C3.35871266 44.72690662 3.35871266 44.72690662 13.75 46.125 C14.45898438 46.21136719 15.16796875 46.29773438 15.8984375 46.38671875 C17.59867317 46.59350417 19.29929344 46.79712384 21 47 C20.67 48.32 20.34 49.64 20 51 C9.23532584 51.60551292 0.2654286 49.9863065 -10 47 C-10.13140381 47.733396 -10.26280762 48.46679199 -10.39819336 49.22241211 C-10.95071208 51.77251573 -11.67936619 54.01722383 -12.62890625 56.44140625 C-18.01436681 69.8152812 -18.01436681 69.8152812 -18 84 C-15.77810176 86.22189824 -13.91517292 86.92598892 -11 88 C-11 88.66 -11 89.32 -11 90 C-19.58 90 -28.16 90 -37 90 C-37 89.34 -37 88.68 -37 88 C-35.79813656 87.09462825 -34.55225342 86.2473197 -33.2890625 85.4296875 C-28.58908776 82.00870192 -26.62304916 78.39150621 -24.375 73.125 C-24.00383057 72.30088623 -23.63266113 71.47677246 -23.25024414 70.62768555 C-19.81677756 62.88698155 -16.80886364 54.98598487 -14 47 C-18.62 47 -23.24 47 -28 47 C-26.34341375 44.63344822 -25.4528653 43.42958407 -23 42 C-18.96746391 41.55427104 -15.04092798 41.70998125 -11 42 C-10.60167969 40.77667969 -10.20335938 39.55335937 -9.79296875 38.29296875 C-8.51477342 34.45387413 -7.14874827 30.65571342 -5.73828125 26.86328125 C-5.14370117 25.25549805 -5.14370117 25.25549805 -4.53710938 23.61523438 C-3.71546324 21.39927965 -2.88724912 19.18575 -2.05273438 16.97460938 C-1.66021484 15.90662109 -1.26769531 14.83863281 -0.86328125 13.73828125 C-0.32634644 12.30029175 -0.32634644 12.30029175 0.22143555 10.83325195 C1.25667025 7.06595852 1.78690712 3.57381423 0 0 Z " fill="#847249" transform="translate(99,67)"/>
<path d="M0 0 C2 1.375 2 1.375 2.8125 4.5 C2.874375 5.44875 2.93625 6.3975 3 7.375 C1.02 8.365 1.02 8.365 -1 9.375 C-1 10.035 -1 10.695 -1 11.375 C-1.66 11.045 -2.32 10.715 -3 10.375 C-2.67 8.395 -2.34 6.415 -2 4.375 C-5.40320934 3.69826553 -5.40320934 3.69826553 -9 3.375 C-11.28728734 5.21383881 -11.28728734 5.21383881 -11.125 8 C-11.08375 8.78375 -11.0425 9.5675 -11 10.375 C-4.38190423 12.83754726 2.00439516 12.56435472 9 12.375 C8 15.375 8 15.375 5 17.375 C4.60516609 19.40926205 4.60516609 19.40926205 4.625 21.6875 C4.33472319 25.44295625 4.09271246 26.25788953 1.625 29.375 C-2.95740963 32.86635972 -7.43947212 32.93203003 -13 32.375 C-16.63467079 30.75099816 -17.77408696 29.71386956 -20 26.375 C-20.43919042 22.34908782 -20.64309139 20.23984704 -18.1875 16.9375 C-16 15.375 -16 15.375 -13 15.375 C-13 14.715 -13 14.055 -13 13.375 C-13.639375 13.065625 -14.27875 12.75625 -14.9375 12.4375 C-17 11.375 -17 11.375 -18 10.375 C-18.4375 7.625 -18.4375 7.625 -18 4.375 C-12.76677331 -1.79752379 -7.54617754 -1.57212032 0 0 Z " fill="#907F59" transform="translate(119,125.625)"/>
<path d="M0 0 C0.66 0.66 1.32 1.32 2 2 C4.2101979 2.29259391 4.2101979 2.29259391 6.80239868 2.22705078 C7.8169664 2.22690979 8.83153412 2.2267688 9.87684631 2.22662354 C10.99465988 2.21629089 12.11247345 2.20595825 13.26416016 2.1953125 C14.4384407 2.19239197 15.61272125 2.18947144 16.82258606 2.1864624 C20.05285846 2.17683303 23.28295073 2.15844963 26.51316118 2.13692474 C29.90494086 2.11696025 33.29674252 2.10993001 36.68856812 2.10205078 C46.06429513 2.07794246 55.43991085 2.03413356 64.81555939 1.98959351 C73.37198501 1.94906708 81.92836913 1.9129126 90.48487127 1.89316368 C95.1517729 1.88172411 99.81843285 1.85461781 104.48526001 1.82470703 C118.61166626 1.76758005 132.13083022 2.12137469 146 5 C146 5.66 146 6.32 146 7 C148.07515238 8.71745364 148.07515238 8.71745364 150.6875 10.4375 C151.55761719 11.03433594 152.42773438 11.63117187 153.32421875 12.24609375 C155.96642208 14.03624816 155.96642208 14.03624816 158.76953125 15.47265625 C161 17 161 17 161.625 18.82421875 C161.810625 19.90123047 161.810625 19.90123047 162 21 C162.96956733 22.95290692 163.97293008 24.88921281 165 26.8125 C167.32323793 31.35337413 168.76899901 34.91797814 169 40 C168.67 39.01 168.34 38.02 168 37 C167.34 37 166.68 37 166 37 C165.61521484 35.87464844 165.61521484 35.87464844 165.22265625 34.7265625 C161.14461171 23.82431548 154.63721558 15.16062934 144 10 C137.35665289 7.02368003 131.07625912 5.87341745 123.77371216 5.87974548 C122.54541183 5.87837082 121.31711151 5.87699615 120.05158997 5.87557983 C118.70382666 5.87911823 117.3560636 5.88275303 116.00830078 5.88647461 C114.57886253 5.8867569 113.14942413 5.88659793 111.71998596 5.8860321 C107.85061718 5.88574577 103.98127953 5.89161608 100.11191797 5.89860606 C96.064024 5.90486681 92.01612927 5.90544555 87.9682312 5.90663147 C80.30795042 5.90973676 72.64768396 5.91793934 64.98740947 5.92798096 C56.26434275 5.939167 47.54127533 5.94465882 38.81820321 5.94967639 C20.87879403 5.96012262 2.93939817 5.97770653 -15 6 C-11.85556308 2.85556308 -7.94505834 3.13418137 -3.65234375 2.5625 C-2.77707031 2.376875 -1.90179688 2.19125 -1 2 C-0.67 1.34 -0.34 0.68 0 0 Z " fill="#24211E" transform="translate(55,0)"/>
<path d="M0 0 C4.05313879 4.05313879 5.28564655 8.48438211 6.81640625 13.875 C8.0931271 17.24588012 9.63878635 19.42647522 11.9375 22.1875 C12.62714844 23.02667969 13.31679687 23.86585938 14.02734375 24.73046875 C15.6259274 26.56963133 17.24555437 28.31155233 19 30 C9.59092876 30.72750551 2.67599846 29.6706086 -4.7421875 23.56640625 C-9.39109545 18.73684126 -15 9.7742489 -15 3 C-12.75 3.125 -12.75 3.125 -10 4 C-6.19751647 8.53844808 -3.96558528 14.0574786 -1.46484375 19.390625 C-0.12081132 22.24735316 -0.12081132 22.24735316 3 24 C2.63648438 23.57332031 2.27296875 23.14664063 1.8984375 22.70703125 C-2.95088294 16.67646609 -5.95627854 10.08043006 -9 3 C-7.02 2.67 -5.04 2.34 -3 2 C-5.97 1.505 -5.97 1.505 -9 1 C-9 0.67 -9 0.34 -9 0 C-5.64961743 -0.83759564 -3.2704774 -1.24052591 0 0 Z " fill="#978763" transform="translate(154,125)"/>
<path d="M0 0 C0.66 0 1.32 0 2 0 C2 37.29 2 74.58 2 113 C1.34 113 0.68 113 0 113 C0 109.04 0 105.08 0 101 C-14.19 101 -28.38 101 -43 101 C-43 100.34 -43 99.68 -43 99 C-41.515 98.01 -41.515 98.01 -40 97 C-39.42251197 95.03638136 -39.42251197 95.03638136 -39.3125 92.875 C-39.209375 91.59625 -39.10625 90.3175 -39 89 C-38.67 89 -38.34 89 -38 89 C-38 91.97 -38 94.94 -38 98 C-32.06 98 -26.12 98 -20 98 C-20.495 97.01 -20.495 97.01 -21 96 C-20.071875 96.33 -19.14375 96.66 -18.1875 97 C-13.19095127 98.45989695 -8.1566642 98.16784802 -3 98 C-4.299375 97.0409375 -4.299375 97.0409375 -5.625 96.0625 C-10.53819792 91.97789365 -14.77566676 86.35212894 -16 80 C-13.07687987 82.63080812 -11.17234046 85.74148931 -9 89 C-6.58760142 92.15927121 -4.34514526 94.76990316 -1 97 C-0.67 64.99 -0.34 32.98 0 0 Z " fill="#837249" transform="translate(175,56)"/>
<path d="M0 0 C0.33 0 0.66 0 1 0 C1 43.89 1 87.78 1 133 C0.67 133 0.34 133 0 133 C-0.04898437 132.31292969 -0.09796875 131.62585938 -0.1484375 130.91796875 C-0.22320313 130.01691406 -0.29796875 129.11585938 -0.375 128.1875 C-0.44460937 127.29417969 -0.51421875 126.40085937 -0.5859375 125.48046875 C-0.86645036 122.75601501 -0.86645036 122.75601501 -3 120 C-3 119.34 -3 118.68 -3 118 C-2.34 118 -1.68 118 -1 118 C-1.33 117.071875 -1.66 116.14375 -2 115.1875 C-3 112 -3 112 -3 109 C-2.34 108.01 -1.68 107.02 -1 106 C-1.66 104.68 -2.32 103.36 -3 102 C-2.01 101.01 -2.01 101.01 -1 100 C-1.495 99.401875 -1.99 98.80375 -2.5 98.1875 C-4 96 -4 96 -4 93 C-2.515 92.01 -2.515 92.01 -1 91 C-2.32 89.35 -3.64 87.7 -5 86 C-3.35 84.68 -1.7 83.36 0 82 C-0.66 82 -1.32 82 -2 82 C-2.33 80.68 -2.66 79.36 -3 78 C-2.01 77.505 -2.01 77.505 -1 77 C-2.06546953 74.86906094 -3.29159719 73.63412443 -5 72 C-4.67 71.01 -4.34 70.02 -4 69 C-3.01 69 -2.02 69 -1 69 C-2.07401108 66.08482708 -2.77810176 64.22189824 -5 62 C-3.68 61.01 -2.36 60.02 -1 59 C-1.66 58.01 -2.32 57.02 -3 56 C-2.67 55.01 -2.34 54.02 -2 53 C-2 51.21118763 -2.86983116 49.5916932 -3.5 47.9375 C-3.7784375 47.20402344 -4.056875 46.47054687 -4.34375 45.71484375 C-4.5603125 45.14894531 -4.776875 44.58304688 -5 44 C-4.01 43.505 -4.01 43.505 -3 43 C-2.34 43.99 -1.68 44.98 -1 46 C-1.495 44.515 -1.495 44.515 -2 43 C-2.33333333 41.33333333 -2.66666667 39.66666667 -3 38 C-3.495 36.515 -3.495 36.515 -4 35 C-3.0625 32.8125 -3.0625 32.8125 -2 31 C-2.66 31 -3.32 31 -4 31 C-3.835 29.906875 -3.67 28.81375 -3.5 27.6875 C-2.93281816 24.12474127 -2.93281816 24.12474127 -3 21 C-2.34 21.33 -1.68 21.66 -1 22 C-1.33 21.01 -1.66 20.02 -2 19 C-2.34820041 17.33637583 -2.68404492 15.67004829 -3 14 C-2.34 13.67 -1.68 13.34 -1 13 C-1.66 10.69 -2.32 8.38 -3 6 C-2.34 5.67 -1.68 5.34 -1 5 C-0.34444881 2.47266765 -0.34444881 2.47266765 0 0 Z M-1 27 C0 31 0 31 0 31 Z M-1 34 C-1 35.65 -1 37.3 -1 39 C-0.67 39 -0.34 39 0 39 C0 37.35 0 35.7 0 34 C-0.33 34 -0.66 34 -1 34 Z " fill="#E6E6E1" transform="translate(6,45)"/>
<path d="M0 0 C1.65 0.33 3.3 0.66 5 1 C4.01 1.33 3.02 1.66 2 2 C1.29879551 3.9881541 0.63681036 5.9902943 0 8 C-7.6681386 20.2613344 -18.18551322 26.68224077 -32 30 C-36.47250978 30.52283138 -40.88691618 30.57510473 -45.38671875 30.56176758 C-46.6552066 30.57371155 -47.92369446 30.58565552 -49.23062134 30.59796143 C-52.66870152 30.6297538 -56.10644096 30.63759237 -59.54465103 30.64043641 C-63.16876944 30.64736186 -66.79272436 30.67596624 -70.41674805 30.701828 C-76.49885144 30.74220312 -82.58087119 30.76813884 -88.66308594 30.78393555 C-96.4334969 30.80417418 -104.20359757 30.84738259 -111.97386169 30.89822865 C-118.7016049 30.94216599 -125.42939214 30.97654839 -132.15719986 31.00889373 C-134.29713639 31.01945542 -136.4370653 31.03109111 -138.57699585 31.04279518 C-142.5890861 31.06390281 -146.60114812 31.07513947 -150.61328125 31.08520508 C-151.78041656 31.09186691 -152.94755188 31.09852875 -154.15005493 31.10539246 C-161.81020683 31.11408177 -169.37179967 30.69352431 -177 30 C-177 29.67 -177 29.34 -177 29 C-130.8 28.67 -84.6 28.34 -37 28 C-37 27.67 -37 27.34 -37 27 C-36.09378906 26.84144531 -35.18757812 26.68289062 -34.25390625 26.51953125 C-26.65717387 25.06449574 -20.4166085 23.36053395 -14 19 C-13.13375 18.443125 -12.2675 17.88625 -11.375 17.3125 C-6.35812542 12.42764844 -2.39140257 6.5851923 0 0 Z " fill="#51504C" transform="translate(220,190)"/>
<path d="M0 0 C0.97591583 3.38317487 0.85856655 5.5657338 0 9 C0.33 9 0.66 9 1 9 C1.1953125 11.01822917 1.390625 13.03645833 1.5859375 15.0546875 C1.86374749 17.22668245 1.86374749 17.22668245 4 19 C5.64991582 19.70710678 7.31562256 20.37943989 9 21 C9 21.66 9 22.32 9 23 C0.42 23 -8.16 23 -17 23 C-17 22.34 -17 21.68 -17 21 C-15.35546875 19.6328125 -15.35546875 19.6328125 -13.1875 18.125 C-7.84985626 14.4110111 -4.72649793 9.61054578 -1.875 3.8125 C-1.52179688 3.09707031 -1.16859375 2.38164062 -0.8046875 1.64453125 C-0.53914063 1.10183594 -0.27359375 0.55914062 0 0 Z " fill="#968763" transform="translate(79,134)"/>
<path d="M0 0 C2 1.375 2 1.375 2.8125 4.5 C2.874375 5.44875 2.93625 6.3975 3 7.375 C1.02 8.365 1.02 8.365 -1 9.375 C-1 10.035 -1 10.695 -1 11.375 C-1.66 11.045 -2.32 10.715 -3 10.375 C-2.67 8.395 -2.34 6.415 -2 4.375 C-5.40320934 3.69826553 -5.40320934 3.69826553 -9 3.375 C-11.28728734 5.21383881 -11.28728734 5.21383881 -11.125 8 C-11.08375 8.78375 -11.0425 9.5675 -11 10.375 C-4.38190423 12.83754726 2.00439516 12.56435472 9 12.375 C8 15.375 8 15.375 5 17.375 C4.49415526 19.53963326 4.49415526 19.53963326 4.4375 21.9375 C4.30859375 24.37890625 4.30859375 24.37890625 4 26.375 C3.34 26.705 2.68 27.035 2 27.375 C2.14037521 25.56206911 2.28744889 23.7496557 2.4375 21.9375 C2.51871094 20.92816406 2.59992188 19.91882813 2.68359375 18.87890625 C3 16.375 3 16.375 4 15.375 C-0.62 15.375 -5.24 15.375 -10 15.375 C-10 15.045 -10 14.715 -10 14.375 C-10.94875 14.08625 -11.8975 13.7975 -12.875 13.5 C-16 12.375 -16 12.375 -18 10.375 C-18.5 7.5625 -18.5 7.5625 -18 4.375 C-12.76677331 -1.79752379 -7.54617754 -1.57212032 0 0 Z " fill="#87754D" transform="translate(119,125.625)"/>
<path d="M0 0 C2.61293718 2.61293718 3.65947128 5.61481339 5.0390625 8.9765625 C5.46764053 10.00443375 5.46764053 10.00443375 5.90487671 11.05307007 C6.81623722 13.24181323 7.72068699 15.43333694 8.625 17.625 C9.24173445 19.10956329 9.85891652 20.59394071 10.4765625 22.078125 C11.98957735 25.71661364 13.49640056 29.35761094 15 33 C13.68 33.66 12.36 34.32 11 35 C3.56381299 24.28314225 -1.32618073 13.18813059 0 0 Z " fill="#EFEEE8" transform="translate(124,84)"/>
<path d="M0 0 C0.66 0.66 1.32 1.32 2 2 C1.84971611 6.05766511 1.59155055 8.3008948 -1.0625 11.4375 C-1.701875 11.953125 -2.34125 12.46875 -3 13 C-5.91517292 11.92598892 -7.77810176 11.22189824 -10 9 C-10.67752443 1.88599349 -10.67752443 1.88599349 -8.375 -1.125 C-4.98621567 -2.37349949 -3.21674424 -1.46851368 0 0 Z " fill="#EFEDE9" transform="translate(116,143)"/>
<path d="M0 0 C2.25 0.125 2.25 0.125 5 1 C8.06944235 4.66352796 9.83340053 8.75658111 11.875 13.0625 C14.29712998 18.03651692 16.41488878 20.94325918 21 24 C19.375 24.75 19.375 24.75 17 25 C7.5257129 19.96048558 3.85402552 11.58870955 0 2 C0 1.34 0 0.68 0 0 Z " fill="#F2F1ED" transform="translate(139,128)"/>
<path d="M0 0 C-0.66 0 -1.32 0 -2 0 C-2 0.66 -2 1.32 -2 2 C-2.94101562 2.44730469 -3.88203125 2.89460937 -4.8515625 3.35546875 C-6.10958875 3.96570537 -7.36738929 4.57640747 -8.625 5.1875 C-9.24246094 5.47947266 -9.85992187 5.77144531 -10.49609375 6.07226562 C-18.85741835 10.16491398 -23.98667331 15.55387462 -28 24 C-29.17584537 27.44684085 -30.20438701 30.89105116 -31.140625 34.41015625 C-31.42421875 35.26480469 -31.7078125 36.11945312 -32 37 C-32.99 37.495 -32.99 37.495 -34 38 C-34.40688409 31.61120591 -33.42209969 27.55963714 -30.4375 21.9375 C-30.07180908 21.2357666 -29.70611816 20.5340332 -29.3293457 19.81103516 C-24.60392741 11.04857514 -11.10101285 -3.70033762 0 0 Z " fill="#585754" transform="translate(42,5)"/>
<path d="M0 0 C2.28234794 2.28234794 2.49048567 3.42299323 3.25 6.5 C6.2984139 17.01020315 12.1030776 24.94608378 21.55859375 30.50390625 C25.69821442 32.66290603 29.37392958 34.22761879 34 35 C34.33 35.99 34.66 36.98 35 38 C24.09802772 37.50445581 15.31889692 31.26052316 8.0625 23.52734375 C5.29908451 20.14111302 3.64669057 17.04811431 2 13 C1.5875 12.175 1.175 11.35 0.75 10.5 C-0.32225557 6.92581477 -0.12625207 3.72443599 0 0 Z " fill="#3E3F3C" transform="translate(8,181)"/>
<path d="M0 0 C0.99 0 1.98 0 3 0 C2.34661131 3.64024948 1.38945162 7.03132859 0.1875 10.52734375 C-0.16570312 11.56697266 -0.51890625 12.60660156 -0.8828125 13.67773438 C-1.62640625 15.84741613 -2.37119428 18.01668895 -3.1171875 20.18554688 C-3.47039062 21.22646484 -3.82359375 22.26738281 -4.1875 23.33984375 C-4.51105469 24.28206787 -4.83460937 25.22429199 -5.16796875 26.19506836 C-6.03468156 29.11691798 -6.55966465 31.98687195 -7 35 C-7.33 35 -7.66 35 -8 35 C-8.08948558 30.52572076 -7.85743651 26.39436211 -7 22 C-8.65 25.3 -10.3 28.6 -12 32 C-13.39287606 27.82137183 -11.64280626 25.34769036 -9.875 21.5625 C-9.22296947 20.12544827 -8.57193736 18.68794312 -7.921875 17.25 C-7.59638672 16.53585938 -7.27089844 15.82171875 -6.93554688 15.0859375 C-5.17152057 11.1527849 -3.56824119 7.15299074 -1.9453125 3.16015625 C-1 1 -1 1 0 0 Z " fill="#816F45" transform="translate(86,114)"/>
<path d="M0 0 C0 0.66 0 1.32 0 2 C2.07515238 3.71745364 2.07515238 3.71745364 4.6875 5.4375 C5.55761719 6.03433594 6.42773438 6.63117187 7.32421875 7.24609375 C9.96642208 9.03624816 9.96642208 9.03624816 12.76953125 10.47265625 C15 12 15 12 15.625 13.82421875 C15.74875 14.54222656 15.8725 15.26023437 16 16 C16.96956733 17.95290692 17.97293008 19.88921281 19 21.8125 C21.32323793 26.35337413 22.76899901 29.91797814 23 35 C22.67 34.01 22.34 33.02 22 32 C21.34 32 20.68 32 20 32 C19.74347656 31.24976563 19.48695313 30.49953125 19.22265625 29.7265625 C15.01501842 18.47786069 8.55464065 10.7310266 -2 5 C-2.99 4.34 -3.98 3.68 -5 3 C-5 2.34 -5 1.68 -5 1 C-5.66 0.67 -6.32 0.34 -7 0 C-4.3333581 -1.33332095 -2.83319697 -0.67102033 0 0 Z " fill="#5E5D5B" transform="translate(201,5)"/>
<path d="M0 0 C2.475 0.495 2.475 0.495 5 1 C4.01 1.33 3.02 1.66 2 2 C1.29879551 3.9881541 0.63681036 5.9902943 0 8 C-5.7563297 17.20435676 -14.38578082 25.11818243 -25 28 C-27.33212027 28.07522969 -29.6685311 28.09325876 -32 28 C-29.67173652 25.67173652 -28.05177347 25.24866997 -24.9375 24.25 C-14.20187584 20.39582684 -7.94002397 14.78608265 -2 5 C-1.29015711 3.35125948 -0.60780374 1.68902245 0 0 Z " fill="#4E4D4A" transform="translate(220,190)"/>
<path d="M0 0 C7.00435592 0.6258645 14.00399099 1.28674095 21 2 C20.67 3.32 20.34 4.64 20 6 C9.23532584 6.60551292 0.2654286 4.9863065 -10 2 C-10 1.67 -10 1.34 -10 1 C-5.71 1.33 -1.42 1.66 3 2 C2.01 1.34 1.02 0.68 0 0 Z " fill="#816E45" transform="translate(99,112)"/>
<path d="M0 0 C0 0.66 0 1.32 0 2 C0.66 2 1.32 2 2 2 C1.67 2.66 1.34 3.32 1 4 C0.42459473 3.86287598 -0.15081055 3.72575195 -0.74365234 3.58447266 C-7.71648718 2.04308011 -14.49959266 1.58278831 -21.625 1.375 C-23.27435547 1.31699219 -23.27435547 1.31699219 -24.95703125 1.2578125 C-27.63786459 1.16456612 -30.3187089 1.07876733 -33 1 C-33.33 0.34 -33.66 -0.32 -34 -1 C-22.24438314 -2.40066924 -11.70834515 -1.88953121 0 0 Z " fill="#34332F" transform="translate(194,4)"/>
<path d="M0 0 C3.96 0 7.92 0 12 0 C11.67 0.66 11.34 1.32 11 2 C10.72488371 5.11361767 10.55331352 8.22687938 10.37890625 11.34765625 C10.25386719 12.22292969 10.12882812 13.09820312 10 14 C9.01 14.495 9.01 14.495 8 15 C7.34 14.67 6.68 14.34 6 14 C5.76171875 12.0390625 5.76171875 12.0390625 5.6875 9.625 C5.5442603 7.19464903 5.5442603 7.19464903 5 5 C2.5748212 3.00916823 2.5748212 3.00916823 0 2 C0 1.34 0 0.68 0 0 Z " fill="#908059" transform="translate(112,140)"/>
<path d="M0 0 C0.556875 0.45375 1.11375 0.9075 1.6875 1.375 C4.05313439 3.03733768 6.29015658 4.02144543 9 5 C9 5.66 9 6.32 9 7 C0.42 7 -8.16 7 -17 7 C-17 6.34 -17 5.68 -17 5 C-16.01 4.34 -15.02 3.68 -14 3 C-13.01 3.33 -12.02 3.66 -11 4 C-8.77181559 4.06937062 -6.54165476 4.08457084 -4.3125 4.0625 C-3.13300781 4.05347656 -1.95351562 4.04445312 -0.73828125 4.03515625 C0.16535156 4.02355469 1.06898437 4.01195312 2 4 C1.34 2.68 0.68 1.36 0 0 Z " fill="#84724A" transform="translate(79,150)"/>
<path d="M0 0 C14.85 0 29.7 0 45 0 C45 0.33 45 0.66 45 1 C35.1 1.495 35.1 1.495 25 2 C25.66 3.32 26.32 4.64 27 6 C26.67 6.99 26.34 7.98 26 9 C25.731875 8.360625 25.46375 7.72125 25.1875 7.0625 C24.11332248 4.66868314 24.11332248 4.66868314 21 4 C20.67 3.34 20.34 2.68 20 2 C14.06 1.67 8.12 1.34 2 1 C1.67 1.66 1.34 2.32 1 3 C0.67 2.01 0.34 1.02 0 0 Z " fill="#F9F9F7" transform="translate(91,63)"/>
<path d="M0 0 C0.66 1.32 1.32 2.64 2 4 C2.99 4 3.98 4 5 4 C5.33 3.34 5.66 2.68 6 2 C7.32 2.99 8.64 3.98 10 5 C12.49361571 3.79618552 14.68143083 2.54571278 17 1 C17 1.99 17 2.98 17 4 C17.66 4 18.32 4 19 4 C19 4.66 19 5.32 19 6 C14.42303901 8.36230245 10.03762057 8.59319807 5 8 C2 6.75 2 6.75 0 5 C-0.875 2.875 -0.875 2.875 -1 1 C-0.67 0.67 -0.34 0.34 0 0 Z " fill="#847147" transform="translate(101,150)"/>
<path d="M0 0 C1.5778125 0.495 1.5778125 0.495 3.1875 1 C9.05298373 2.50071836 14.99092943 2.16488303 21 2 C20 5 20 5 17 7 C16.49415526 9.16463326 16.49415526 9.16463326 16.4375 11.5625 C16.30859375 14.00390625 16.30859375 14.00390625 16 16 C15.34 16.33 14.68 16.66 14 17 C14.14037521 15.18706911 14.28744889 13.3746557 14.4375 11.5625 C14.51871094 10.55316406 14.59992188 9.54382813 14.68359375 8.50390625 C15 6 15 6 16 5 C11.38 5 6.76 5 2 5 C2 4.67 2 4.34 2 4 C0.02 3.34 -1.96 2.68 -4 2 C-3.34 1.67 -2.68 1.34 -2 1 C-1.34 1.33 -0.68 1.66 0 2 C0 1.34 0 0.68 0 0 Z " fill="#7A663A" transform="translate(107,136)"/>
<path d="M0 0 C0.58007812 0.32613281 1.16015625 0.65226563 1.7578125 0.98828125 C10.43624028 6.1427713 10.43624028 6.1427713 20 9 C20.33 9.99 20.66 10.98 21 12 C13.54294158 11.6610428 5.30270738 8.30270738 0 3 C0 2.01 0 1.02 0 0 Z " fill="#474543" transform="translate(22,207)"/>
<path d="M0 0 C0 0.99 0 1.98 0 3 C-5.09199284 8.079069 -10.67442088 10.89272325 -17.875 11.125 C-18.90625 11.08375 -19.9375 11.0425 -21 11 C-18.66655289 8.66655289 -16.99233366 8.20779723 -13.875 7.1875 C-8.75139807 5.39862713 -4.43687098 3.10199576 0 0 Z " fill="#434341" transform="translate(209,207)"/>
<path d="M0 0 C0.66 0.33 1.32 0.66 2 1 C1.60167969 1.76183594 1.20335937 2.52367187 0.79296875 3.30859375 C-2.35851676 9.45053996 -5.01618448 15.38728161 -7 22 C-7.33 22 -7.66 22 -8 22 C-8.93533475 14.04965465 -5.88605343 7.85596472 -2 1 C-1.34 0.67 -0.68 0.34 0 0 Z " fill="#393734" transform="translate(16,21)"/>
<path d="M0 0 C6.0630477 2.54879712 8.47878019 8.40716266 10.875 14.25 C11.95951509 17.86505031 12.07839748 18.66139959 11 22 C11 21.01 11 20.02 11 19 C10.34 19 9.68 19 9 19 C8.68546875 18.19175781 8.3709375 17.38351563 8.046875 16.55078125 C7.40492188 14.94783203 7.40492188 14.94783203 6.75 13.3125 C6.33234375 12.25675781 5.9146875 11.20101563 5.484375 10.11328125 C3.99125768 6.98166413 2.18832763 4.66994674 0 2 C0 1.34 0 0.68 0 0 Z " fill="#3F3E3B" transform="translate(212,18)"/>
<path d="M0 0 C0.804375 0.495 0.804375 0.495 1.625 1 C4.5391061 2.22699204 6.86867708 2.14233286 10 2 C10 2.66 10 3.32 10 4 C12.97 4.495 12.97 4.495 16 5 C16 5.33 16 5.66 16 6 C14.89140625 5.91621094 13.7828125 5.83242187 12.640625 5.74609375 C11.17710672 5.64289695 9.71356369 5.54005074 8.25 5.4375 C7.15558594 5.35338867 7.15558594 5.35338867 6.0390625 5.26757812 C1.91947156 4.94292272 1.91947156 4.94292272 -2.11816406 5.61743164 C-2.73916992 5.7436792 -3.36017578 5.86992676 -4 6 C-4.66 5.34 -5.32 4.68 -6 4 C-4.68 4 -3.36 4 -2 4 C-2 3.34 -2 2.68 -2 2 C-1.34 2 -0.68 2 0 2 C0 1.34 0 0.68 0 0 Z " fill="#988865" transform="translate(89,109)"/>
<path d="M0 0 C6.6 0 13.2 0 20 0 C20 0.66 20 1.32 20 2 C16.12163644 3.32602147 12.33010025 2.96655311 8.3125 2.6875 C7.62349609 2.65205078 6.93449219 2.61660156 6.22460938 2.58007812 C4.47616182 2.46489033 2.73561754 2.24076721 1 2 C0.67 1.34 0.34 0.68 0 0 Z " fill="#897853" transform="translate(115,64)"/>
<path d="M0 0 C1.33333333 0.66666667 2.66666667 1.33333333 4 2 C4.639375 2.268125 5.27875 2.53625 5.9375 2.8125 C8.76289137 4.43924048 10.76913245 6.64519537 13 9 C7.72785482 8.74282219 5.12870062 6.82766483 1.3203125 3.47265625 C0 2 0 2 0 0 Z " fill="#F9F9F7" transform="translate(147,144)"/>
<path d="M0 0 C3.86769385 1.28923128 4.74134828 2.61202242 7 6 C6.625 8.6875 6.625 8.6875 6 11 C2.90407165 7.4912812 1.25805377 4.50802601 0 0 Z " fill="#EBE9E3" transform="translate(141,130)"/>
<path d="M0 0 C0.33 0.66 0.66 1.32 1 2 C-0.65 4.31 -2.3 6.62 -4 9 C-4.66 8.67 -5.32 8.34 -6 8 C-5.34 6.68 -4.68 5.36 -4 4 C-5.32 4.33 -6.64 4.66 -8 5 C-5.64722731 2.27573689 -3.37503669 1.1858237 0 0 Z " fill="#79643B" transform="translate(161,113)"/>
<path d="M0 0 C1.98 0.99 1.98 0.99 4 2 C4 5.63 4 9.26 4 13 C3.01 12.67 2.02 12.34 1 12 C1.33 11.34 1.66 10.68 2 10 C1.34 10 0.68 10 0 10 C0.185625 8.906875 0.37125 7.81375 0.5625 6.6875 C1.2578068 3.06375867 1.2578068 3.06375867 0 0 Z " fill="#F6FCEF" transform="translate(2,66)"/>
<path d="M0 0 C0.33 0 0.66 0 1 0 C1.02694851 1.95825873 1.04637218 3.91662226 1.0625 5.875 C1.07410156 6.96554688 1.08570313 8.05609375 1.09765625 9.1796875 C1 12 1 12 0 14 C-0.66 14 -1.32 14 -2 14 C-1.03644647 4.58997722 -1.03644647 4.58997722 0 0 Z " fill="#292725" transform="translate(223,176)"/>
<path d="M0 0 C0.69867188 0.18175781 1.39734375 0.36351562 2.1171875 0.55078125 C3.17292969 0.80408203 3.17292969 0.80408203 4.25 1.0625 C5.11238281 1.45888672 5.11238281 1.45888672 5.9921875 1.86328125 C6.3221875 2.85328125 6.6521875 3.84328125 6.9921875 4.86328125 C2.6744417 4.35531116 -1.04083364 3.66645346 -5.0078125 1.86328125 C-2.0078125 -0.13671875 -2.0078125 -0.13671875 0 0 Z " fill="#62615E" transform="translate(36.0078125,214.13671875)"/>
<path d="M0 0 C2.42130331 2.42130331 2.52840504 3.80111377 3.125 7.125 C3.29257813 8.03507813 3.46015625 8.94515625 3.6328125 9.8828125 C3.81457031 10.93082031 3.81457031 10.93082031 4 12 C3.01 12.495 3.01 12.495 2 13 C-0.24828052 8.50343896 -0.16682272 4.92127034 0 0 Z " fill="#2F2F2D" transform="translate(8,181)"/>
<path d="M0 0 C-0.33 0.99 -0.66 1.98 -1 3 C-2.175625 2.9690625 -2.175625 2.9690625 -3.375 2.9375 C-5.98114961 2.81315937 -5.98114961 2.81315937 -8 4 C-8.99 3.34 -9.98 2.68 -11 2 C-9.54494642 1.47007308 -8.08581873 0.9513211 -6.625 0.4375 C-5.81289062 0.14746094 -5.00078125 -0.14257812 -4.1640625 -0.44140625 C-2 -1 -2 -1 0 0 Z " fill="#91825C" transform="translate(116,126)"/>
<path d="M0 0 C0.99 0 1.98 0 3 0 C3 2.64 3 5.28 3 8 C2.34 8 1.68 8 1 8 C1 9.65 1 11.3 1 13 C0.67 13 0.34 13 0 13 C0 8.71 0 4.42 0 0 Z " fill="#DFDEDA" transform="translate(220,42)"/>
<path d="M0 0 C2.6875 -0.25 2.6875 -0.25 5 0 C5 0.33 5 0.66 5 1 C6.65 1.33 8.3 1.66 10 2 C10 2.33 10 2.66 10 3 C3.565 3.495 3.565 3.495 -3 4 C-2.01 2.68 -1.02 1.36 0 0 Z " fill="#6E572B" transform="translate(74,110)"/>
<path d="M0 0 C0.98120464 3.05263664 0.98120464 4.94736336 0 8 C-0.99 7.67 -1.98 7.34 -3 7 C-3.6875 4.9375 -3.6875 4.9375 -4 3 C-2.68 2.01 -1.36 1.02 0 0 Z " fill="#978762" transform="translate(121,147)"/>
<path d="M0 0 C1.65 0 3.3 0 5 0 C4 3 4 3 1.9375 4.1875 C1.298125 4.455625 0.65875 4.72375 0 5 C0 4.34 0 3.68 0 3 C-1.65 3.66 -3.3 4.32 -5 5 C-5 4.34 -5 3.68 -5 3 C-3.35 2.67 -1.7 2.34 0 2 C0 1.34 0 0.68 0 0 Z " fill="#87754D" transform="translate(106,139)"/>
<path d="M0 0 C1.39195915 4.17587745 -0.17676781 6.13474776 -2 10 C-3.125 8.3125 -3.125 8.3125 -4 6 C-3.25 3.3125 -3.25 3.3125 -2 1 C-1.34 0.67 -0.68 0.34 0 0 Z " fill="#8C7B55" transform="translate(101,77)"/>
<path d="M0 0 C-0.66 0 -1.32 0 -2 0 C-2 0.66 -2 1.32 -2 2 C-5.83887763 3.48320272 -8.06204091 4.22419163 -12 3 C-10.5682384 2.30062798 -9.12932968 1.61587282 -7.6875 0.9375 C-6.48673828 0.36322266 -6.48673828 0.36322266 -5.26171875 -0.22265625 C-3 -1 -3 -1 0 0 Z " fill="#5E5D5A" transform="translate(42,5)"/>
<path d="M0 0 C0.99 0.33 1.98 0.66 3 1 C2.67 3.31 2.34 5.62 2 8 C-1 4.375 -1 4.375 -1 1 C-0.67 0.67 -0.34 0.34 0 0 Z " fill="#F9F9F9" transform="translate(3,137)"/>
<path d="M0 0 C-1.28524261 0.86380259 -2.57842419 1.71580369 -3.875 2.5625 C-4.59429688 3.03816406 -5.31359375 3.51382812 -6.0546875 4.00390625 C-6.69664063 4.33261719 -7.33859375 4.66132813 -8 5 C-8.66 4.67 -9.32 4.34 -10 4 C-4.4 -2.2 -4.4 -2.2 0 0 Z " fill="#343430" transform="translate(34,9)"/>
<path d="M0 0 C0 0.66 0 1.32 0 2 C0.66 2 1.32 2 2 2 C1.67 2.66 1.34 3.32 1 4 C-2.3 3.34 -5.6 2.68 -9 2 C-5.5647952 -0.29013653 -4.014669 -0.17842973 0 0 Z " fill="#444340" transform="translate(194,4)"/>
<path d="M0 0 C0.33 0.66 0.66 1.32 1 2 C1.99 2.33 2.98 2.66 4 3 C4 4.65 4 6.3 4 8 C3.608125 7.525625 3.21625 7.05125 2.8125 6.5625 C0.59191626 4.64820367 -1.13375709 4.38733012 -4 4 C-2.68 2.68 -1.36 1.36 0 0 Z " fill="#8A7953" transform="translate(152,120)"/>
<path d="M0 0 C0.99 0 1.98 0 3 0 C4.06775224 1.96466413 5.06553465 3.96855359 6 6 C5.67 6.66 5.34 7.32 5 8 C2.20127563 5.47211993 0.54226981 3.79588866 0 0 Z " fill="#EBE8E2" transform="translate(117,78)"/>
<path d="M0 0 C0.66 0.33 1.32 0.66 2 1 C0.35 3.64 -1.3 6.28 -3 9 C-4 5 -4 5 -3.1875 2.8125 C-2 1 -2 1 0 0 Z " fill="#262622" transform="translate(16,21)"/>
<path d="M0 0 C0.66 0.33 1.32 0.66 2 1 C0.71937515 2.7074998 -0.61767557 4.37373596 -2 6 C-2.66 6 -3.32 6 -4 6 C-4.33 5.01 -4.66 4.02 -5 3 C-2.625 1.4375 -2.625 1.4375 0 0 Z " fill="#988A67" transform="translate(157,116)"/>
<path d="M0 0 C0 3 0 3 -1.25 4.75 C-1.8275 5.1625 -2.405 5.575 -3 6 C-4.32 5.67 -5.64 5.34 -7 5 C-4.69 3.35 -2.38 1.7 0 0 Z " fill="#272826" transform="translate(209,207)"/>
<path d="M0 0 C0.99 0.33 1.98 0.66 3 1 C1.35 2.98 -0.3 4.96 -2 7 C-2.33 6.01 -2.66 5.02 -3 4 C-1.5625 1.8125 -1.5625 1.8125 0 0 Z " fill="#595957" transform="translate(213,202)"/>
<path d="M0 0 C0.66 0.33 1.32 0.66 2 1 C0.35 3.64 -1.3 6.28 -3 9 C-3.66 8.67 -4.32 8.34 -5 8 C-5 6 -5 6 -3.0625 4 C-2.381875 3.34 -1.70125 2.68 -1 2 C-0.67 1.34 -0.34 0.68 0 0 Z " fill="#E4E3E1" transform="translate(218,192)"/>
<path d="M0 0 C1.85776765 3.13498292 2.20140476 5.37471432 2 9 C0.68 8.67 -0.64 8.34 -2 8 C-1.34 5.36 -0.68 2.72 0 0 Z " fill="#E8E5DE" transform="translate(128,93)"/>
<path d="M0 0 C0.66 0.33 1.32 0.66 2 1 C2 2.32 2 3.64 2 5 C1.34 5 0.68 5 0 5 C-0.33 6.65 -0.66 8.3 -1 10 C-2.46726798 6.18510326 -1.43336419 3.70988378 0 0 Z " fill="#F2F2EE" transform="translate(104,75)"/>
<path d="M0 0 C0 0.99 0 1.98 0 3 C-1.32 3.33 -2.64 3.66 -4 4 C-4.33 3.01 -4.66 2.02 -5 1 C-5.66 0.67 -6.32 0.34 -7 0 C-4.3333581 -1.33332095 -2.83319697 -0.67102033 0 0 Z " fill="#999A91" transform="translate(201,5)"/>
<path d="M0 0 C0.33 0.66 0.66 1.32 1 2 C-4.41538462 3.23076923 -4.41538462 3.23076923 -7.375 2.0625 C-7.91125 1.711875 -8.4475 1.36125 -9 1 C-5.8035914 -0.06546953 -3.34252724 -0.07427838 0 0 Z " fill="#E4E3DF" transform="translate(196,213)"/>
<path d="M0 0 C2.31 0.66 4.62 1.32 7 2 C6.67 2.66 6.34 3.32 6 4 C3.69 4 1.38 4 -1 4 C-0.34 3.34 0.32 2.68 1 2 C0.67 1.34 0.34 0.68 0 0 Z " fill="#7E6B3F" transform="translate(154,152)"/>
<path d="M0 0 C3.28212246 0.43761633 4.84832931 1.52557871 7 4 C1.25 3.25 1.25 3.25 -1 1 C-0.67 0.67 -0.34 0.34 0 0 Z " fill="#F1EFE9" transform="translate(153,149)"/>
<path d="M0 0 C2.64 0.66 5.28 1.32 8 2 C7.67 2.66 7.34 3.32 7 4 C4.69 3.34 2.38 2.68 0 2 C0 1.34 0 0.68 0 0 Z " fill="#E7E0E0" transform="translate(33,218)"/>
<path d="M0 0 C0.66 0 1.32 0 2 0 C2 1.98 2 3.96 2 6 C0 2.25 0 2.25 0 0 Z " fill="#F7F7F7" transform="translate(3,169)"/>
<path d="M0 0 C0.66 1.32 1.32 2.64 2 4 C1.34 3.67 0.68 3.34 0 3 C0 2.01 0 1.02 0 0 Z " fill="#FFFFFF" transform="translate(17,10)"/>
<path d="M0 0 C0.66 0 1.32 0 2 0 C2 0.66 2 1.32 2 2 C1.34 2 0.68 2 0 2 C0 1.34 0 0.68 0 0 Z " fill="#EFEFEF" transform="translate(6,190)"/>
<path d="M0 0 C0.66 0 1.32 0 2 0 C1.67 0.99 1.34 1.98 1 3 C0.67 2.01 0.34 1.02 0 0 Z " fill="#DFDFCA" transform="translate(223,32)"/>
<path d="M0 0 C0.99 1.485 0.99 1.485 2 3 C1.34 3 0.68 3 0 3 C0 2.01 0 1.02 0 0 Z " fill="#E9FFE9" transform="translate(11,18)"/>
<path d="M0 0 C0.33 0.66 0.66 1.32 1 2 C0.01 1.67 -0.98 1.34 -2 1 C-1.34 0.67 -0.68 0.34 0 0 Z " fill="#DFDFDF" transform="translate(136,0)"/>
<path d="M0 0 C0.66 0.66 1.32 1.32 2 2 C1.01 1.67 0.02 1.34 -1 1 C-0.67 0.67 -0.34 0.34 0 0 Z " fill="#F2F2F2" transform="translate(104,0)"/>
<path d="M0 0 C0.66 0.66 1.32 1.32 2 2 C1.34 2 0.68 2 0 2 C0 1.34 0 0.68 0 0 Z " fill="#FFFFFF" transform="translate(141,221)"/>
<path d="M0 0 C3 1 3 1 3 1 Z " fill="#FFFFFF" transform="translate(52,222)"/>
<path d="M0 0 C3 1 3 1 3 1 Z " fill="#FFFFFF" transform="translate(49,221)"/>
<path d="M0 0 C3 1 3 1 3 1 Z " fill="#EEEED1" transform="translate(193,219)"/>
<path d="M0 0 C0.99 0.495 0.99 0.495 2 1 C1.01 1.495 1.01 1.495 0 2 C0 1.34 0 0.68 0 0 Z " fill="#E2E2E2" transform="translate(18,213)"/>
<path d="M0 0 C0.99 0.495 0.99 0.495 2 1 C1.01 1.495 1.01 1.495 0 2 C0 1.34 0 0.68 0 0 Z " fill="#C6E2C6" transform="translate(214,206)"/>
<path d="M0 0 C0.66 0.66 1.32 1.32 2 2 C1.34 2 0.68 2 0 2 C0 1.34 0 0.68 0 0 Z " fill="#E9E9E9" transform="translate(14,203)"/>
<path d="" fill="#FFFFFF" transform="translate(0,0)"/>
<path d="M0 0 C0.66 0 1.32 0 2 0 C1.67 0.66 1.34 1.32 1 2 C0.67 1.34 0.34 0.68 0 0 Z " fill="#E9E9E9" transform="translate(2,43)"/>
<path d="M0 0 C0.66 0 1.32 0 2 0 C1.67 0.66 1.34 1.32 1 2 C0.67 1.34 0.34 0.68 0 0 Z " fill="#E2E2E2" transform="translate(24,8)"/>
<path d="" fill="#FFFFFF" transform="translate(0,0)"/>
<path d="M0 0 C3 1 3 1 3 1 Z " fill="#E9E9E9" transform="translate(112,1)"/>
<path d="M0 0 C0.66 0.66 1.32 1.32 2 2 C1.34 2 0.68 2 0 2 C0 1.34 0 0.68 0 0 Z " fill="#FFFFFF" transform="translate(71,0)"/>
<path d="M0 0 C0.33 0.66 0.66 1.32 1 2 C0.34 1.67 -0.32 1.34 -1 1 C-0.67 0.67 -0.34 0.34 0 0 Z " fill="#FFFFFF" transform="translate(88,0)"/>
<path d="" fill="#FFFFFF" transform="translate(0,0)"/>
<path d="M0 0 C2 1 2 1 2 1 Z " fill="#FFFFFF" transform="translate(133,222)"/>
<path d="M0 0 C2 1 2 1 2 1 Z " fill="#FFFFFF" transform="translate(84,222)"/>
<path d="M0 0 C2 1 2 1 2 1 Z " fill="#FFFFFF" transform="translate(146,221)"/>
<path d="M0 0 C2 1 2 1 2 1 Z " fill="#D4D4D4" transform="translate(44,221)"/>
<path d="" fill="#FFFFFF" transform="translate(0,0)"/>
<path d="" fill="#BFBFBF" transform="translate(0,0)"/>
<path d="M0 0 C2 1 2 1 2 1 Z " fill="#FFFFFF" transform="translate(4,182)"/>
<path d="M0 0 C2 1 2 1 2 1 Z " fill="#FFFFFF" transform="translate(3,179)"/>
<path d="" fill="#FFFFFF" transform="translate(0,0)"/>
<path d="M0 0 C2 1 2 1 2 1 Z " fill="#D4D4D4" transform="translate(221,25)"/>
<path d="" fill="#CCCCCC" transform="translate(0,0)"/>
<path d="" fill="#FFFFFF" transform="translate(0,0)"/>
<path d="" fill="#FFFFFF" transform="translate(0,0)"/>
<path d="M0 0 C2 1 2 1 2 1 Z " fill="#FFFFFF" transform="translate(191,2)"/>
<path d="M0 0 C2 1 2 1 2 1 Z " fill="#FFFFFF" transform="translate(127,1)"/>
<path d="" fill="#FFFFFF" transform="translate(0,0)"/>
<path d="M0 0 C2 1 2 1 2 1 Z " fill="#FFFFFF" transform="translate(63,1)"/>
<path d="M0 0 C2 1 2 1 2 1 Z " fill="#FFFFFF" transform="translate(45,1)"/>
<path d="" fill="#FFFFFF" transform="translate(0,0)"/>
<path d="" fill="#AAAAAA" transform="translate(0,0)"/>
<path d="" fill="#FFFFFF" transform="translate(0,0)"/>
<path d="" fill="#FFFFFF" transform="translate(0,0)"/>
<path d="" fill="#FFFFFF" transform="translate(0,0)"/>
<path d="" fill="#FFFFFF" transform="translate(0,0)"/>
<path d="" fill="#FFFFFF" transform="translate(0,0)"/>
<path d="" fill="#FFFFFF" transform="translate(0,0)"/>
<path d="" fill="#FFFFFF" transform="translate(0,0)"/>
<path d="" fill="#FFFFFF" transform="translate(0,0)"/>
<path d="" fill="#FFFFFF" transform="translate(0,0)"/>
<path d="" fill="#FFFFFF" transform="translate(0,0)"/>
<path d="" fill="#FFFFFF" transform="translate(0,0)"/>
<path d="" fill="#FFFFFF" transform="translate(0,0)"/>
<path d="" fill="#FFFFFF" transform="translate(0,0)"/>
<path d="" fill="#FFFFFF" transform="translate(0,0)"/>
<path d="" fill="#FFFFFF" transform="translate(0,0)"/>
<path d="" fill="#FFFFAA" transform="translate(0,0)"/>
<path d="" fill="#FFFFFF" transform="translate(0,0)"/>
<path d="" fill="#FFFFFF" transform="translate(0,0)"/>
<path d="" fill="#BFBFBF" transform="translate(0,0)"/>
<path d="" fill="#FFFFFF" transform="translate(0,0)"/>
<path d="" fill="#FFFFFF" transform="translate(0,0)"/>
<path d="" fill="#FFFFFF" transform="translate(0,0)"/>
<path d="" fill="#FFFFFF" transform="translate(0,0)"/>
<path d="" fill="#FFFFFF" transform="translate(0,0)"/>
<path d="" fill="#FFFFFF" transform="translate(0,0)"/>
<path d="" fill="#FFFFFF" transform="translate(0,0)"/>
<path d="" fill="#FFFFFF" transform="translate(0,0)"/>
<path d="" fill="#FFFFFF" transform="translate(0,0)"/>
<path d="" fill="#FFFFFF" transform="translate(0,0)"/>
<path d="" fill="#FFFFFF" transform="translate(0,0)"/>
<path d="" fill="#FFFFFF" transform="translate(0,0)"/>
<path d="" fill="#BFBFBF" transform="translate(0,0)"/>
<path d="" fill="#AAAAAA" transform="translate(0,0)"/>
<path d="" fill="#FFFFFF" transform="translate(0,0)"/>
<path d="" fill="#FFFFFF" transform="translate(0,0)"/>
<path d="" fill="#FFFFFF" transform="translate(0,0)"/>
<path d="" fill="#FFFFFF" transform="translate(0,0)"/>
<path d="" fill="#FFFFFF" transform="translate(0,0)"/>
<path d="" fill="#FFFFFF" transform="translate(0,0)"/>
<path d="" fill="#FFFFFF" transform="translate(0,0)"/>
<path d="" fill="#CCCCCC" transform="translate(0,0)"/>
<path d="" fill="#FFFFFF" transform="translate(0,0)"/>
<path d="" fill="#FFFFFF" transform="translate(0,0)"/>
<path d="" fill="#FFFFFF" transform="translate(0,0)"/>
<path d="" fill="#FFFFFF" transform="translate(0,0)"/>
<path d="" fill="#FFFFFF" transform="translate(0,0)"/>
<path d="" fill="#FFFFFF" transform="translate(0,0)"/>
<path d="" fill="#FFAAAA" transform="translate(0,0)"/>
<path d="" fill="#FFFFFF" transform="translate(0,0)"/>
<path d="" fill="#FFFFFF" transform="translate(0,0)"/>
<path d="" fill="#FFFFFF" transform="translate(0,0)"/>
<path d="" fill="#FFFFFF" transform="translate(0,0)"/>
<path d="" fill="#FFFFFF" transform="translate(0,0)"/>
<path d="" fill="#FFFFFF" transform="translate(0,0)"/>
<path d="" fill="#FFFFFF" transform="translate(0,0)"/>
<path d="" fill="#FFFFFF" transform="translate(0,0)"/>
<path d="" fill="#AAAAAA" transform="translate(0,0)"/>
<path d="" fill="#FFFFFF" transform="translate(0,0)"/>
<path d="" fill="#FFFFFF" transform="translate(0,0)"/>
<path d="" fill="#FFFFFF" transform="translate(0,0)"/>
<path d="" fill="#FFFFFF" transform="translate(0,0)"/>
<path d="" fill="#FFFFFF" transform="translate(0,0)"/>
<path d="" fill="#BFBFBF" transform="translate(0,0)"/>
<path d="" fill="#FFFFAA" transform="translate(0,0)"/>
<path d="" fill="#FFFFFF" transform="translate(0,0)"/>
<path d="" fill="#FFFFFF" transform="translate(0,0)"/>
<path d="" fill="#FFFFFF" transform="translate(0,0)"/>
<path d="" fill="#FFFFFF" transform="translate(0,0)"/>
<path d="" fill="#FFFFAA" transform="translate(0,0)"/>
<path d="" fill="#FFFFFF" transform="translate(0,0)"/>
<path d="" fill="#FFFFFF" transform="translate(0,0)"/>
<path d="" fill="#FFFFFF" transform="translate(0,0)"/>
<path d="" fill="#FFFFFF" transform="translate(0,0)"/>
<path d="" fill="#FFFFAA" transform="translate(0,0)"/>
<path d="" fill="#FFFFFF" transform="translate(0,0)"/>
<path d="" fill="#FFFFFF" transform="translate(0,0)"/>
<path d="" fill="#FFFFAA" transform="translate(0,0)"/>
<path d="" fill="#FFFFFF" transform="translate(0,0)"/>
<path d="" fill="#FFFFFF" transform="translate(0,0)"/>
<path d="" fill="#FFFFAA" transform="translate(0,0)"/>
<path d="" fill="#FFFFFF" transform="translate(0,0)"/>
<path d="" fill="#FFFFFF" transform="translate(0,0)"/>
<path d="" fill="#FFFFFF" transform="translate(0,0)"/>
<path d="" fill="#FFFFFF" transform="translate(0,0)"/>
<path d="" fill="#FFFFFF" transform="translate(0,0)"/>
<path d="" fill="#FFFFFF" transform="translate(0,0)"/>
<path d="" fill="#FFFFFF" transform="translate(0,0)"/>
<path d="" fill="#FFFFFF" transform="translate(0,0)"/>
<path d="" fill="#FFFFFF" transform="translate(0,0)"/>
<path d="" fill="#FFFFFF" transform="translate(0,0)"/>
<path d="" fill="#FFFFFF" transform="translate(0,0)"/>
<path d="" fill="#FFFFFF" transform="translate(0,0)"/>
<path d="" fill="#FFFFFF" transform="translate(0,0)"/>
<path d="" fill="#FFFFFF" transform="translate(0,0)"/>
<path d="" fill="#FFFFFF" transform="translate(0,0)"/>
<path d="" fill="#FFFFFF" transform="translate(0,0)"/>
<path d="" fill="#FFFFAA" transform="translate(0,0)"/>
<path d="" fill="#FFFFFF" transform="translate(0,0)"/>
<path d="" fill="#AAFFAA" transform="translate(0,0)"/>
<path d="" fill="#FFFFFF" transform="translate(0,0)"/>
<path d="" fill="#FFFFFF" transform="translate(0,0)"/>
<path d="" fill="#FFFFFF" transform="translate(0,0)"/>
<path d="" fill="#FFFFFF" transform="translate(0,0)"/>
<path d="" fill="#FFFFFF" transform="translate(0,0)"/>
<path d="" fill="#FFFFFF" transform="translate(0,0)"/>
<path d="" fill="#FFFFFF" transform="translate(0,0)"/>
<path d="" fill="#FFFFFF" transform="translate(0,0)"/>
<path d="" fill="#FFFFFF" transform="translate(0,0)"/>
<path d="" fill="#FFFFFF" transform="translate(0,0)"/>
<path d="" fill="#FFFFFF" transform="translate(0,0)"/>
<path d="" fill="#FFFFFF" transform="translate(0,0)"/>
<path d="" fill="#FFFFFF" transform="translate(0,0)"/>
<path d="" fill="#FFFFFF" transform="translate(0,0)"/>
<path d="" fill="#FFFFFF" transform="translate(0,0)"/>
<path d="" fill="#FFFFFF" transform="translate(0,0)"/>
<path d="" fill="#FFFFFF" transform="translate(0,0)"/>
<path d="" fill="#FFFFFF" transform="translate(0,0)"/>
<path d="" fill="#FFFFFF" transform="translate(0,0)"/>
<path d="" fill="#FFFFFF" transform="translate(0,0)"/>
<path d="" fill="#AAFFAA" transform="translate(0,0)"/>
<path d="" fill="#FFFFFF" transform="translate(0,0)"/>
<path d="" fill="#FFFFFF" transform="translate(0,0)"/>
<path d="" fill="#DADADA" transform="translate(0,0)"/>
<path d="" fill="#FFFFFF" transform="translate(0,0)"/>
<path d="" fill="#FFFFFF" transform="translate(0,0)"/>
<path d="" fill="#FFFFFF" transform="translate(0,0)"/>
<path d="" fill="#FFFFFF" transform="translate(0,0)"/>
<path d="" fill="#FFFFFF" transform="translate(0,0)"/>
<path d="" fill="#FFFFAA" transform="translate(0,0)"/>
<path d="" fill="#FFFFFF" transform="translate(0,0)"/>
<path d="" fill="#FFFFFF" transform="translate(0,0)"/>
<path d="" fill="#FFFFFF" transform="translate(0,0)"/>
<path d="" fill="#FFFFFF" transform="translate(0,0)"/>
<path d="" fill="#FFFFFF" transform="translate(0,0)"/>
<path d="" fill="#CCCCCC" transform="translate(0,0)"/>
<path d="" fill="#FFFFFF" transform="translate(0,0)"/>
<path d="" fill="#FFFFFF" transform="translate(0,0)"/>
<path d="" fill="#FFFFFF" transform="translate(0,0)"/>
<path d="" fill="#FFFFFF" transform="translate(0,0)"/>
<path d="" fill="#FFFFFF" transform="translate(0,0)"/>
<path d="" fill="#FFFFFF" transform="translate(0,0)"/>
<path d="" fill="#FFFFFF" transform="translate(0,0)"/>
<path d="" fill="#FFFFFF" transform="translate(0,0)"/>
<path d="" fill="#FFFFFF" transform="translate(0,0)"/>
<path d="" fill="#FFFFFF" transform="translate(0,0)"/>
<path d="" fill="#FFFFFF" transform="translate(0,0)"/>
<path d="" fill="#FFFFFF" transform="translate(0,0)"/>
<path d="" fill="#FFFFFF" transform="translate(0,0)"/>
<path d="" fill="#FFFFFF" transform="translate(0,0)"/>
<path d="" fill="#FFFFFF" transform="translate(0,0)"/>
<path d="" fill="#FFFFFF" transform="translate(0,0)"/>
</svg>
